<svg width="24" height="24" viewBox="0 0 24 24" fill="none" xmlns="http://www.w3.org/2000/svg">
<path d="M6.33526 4.14431C8.62822 5.80612 11.0945 9.17559 12.0001 10.9838C12.9056 9.17573 15.3718 5.80609 17.6649 4.14431C19.3193 2.94521 22 2.01741 22 4.96971C22 5.55932 21.6498 9.92276 21.4445 10.6312C20.7306 13.094 18.1292 13.7222 15.8152 13.342C19.86 14.0065 20.8889 16.2079 18.6668 18.4092C14.4465 22.59 12.601 17.3602 12.1278 16.0202C12.0412 15.7745 12.0006 15.6596 12 15.7573C11.9994 15.6596 11.9588 15.7745 11.8721 16.0202C11.3993 17.3602 9.55378 22.5901 5.33322 18.4092C3.11103 16.2079 4.13995 14.0064 8.18483 13.342C5.87077 13.7222 3.26934 13.094 2.55555 10.6312C2.35016 9.9227 2 5.55925 2 4.96971C2 2.01741 4.68074 2.94521 6.33515 4.14431H6.33526Z" fill="white"/>
</svg>
