<svg width="115" height="48" viewBox="0 0 115 48" fill="none" xmlns="http://www.w3.org/2000/svg">
<g clip-path="url(#clip0_887_2685)">
<mask id="mask0_887_2685" style="mask-type:luminance" maskUnits="userSpaceOnUse" x="0" y="3" width="115" height="40">
<path d="M115 3H0V43H115V3Z" fill="white"/>
</mask>
<g mask="url(#mask0_887_2685)">
<path d="M100.329 13.9359C100.066 13.9359 99.8277 13.8721 99.613 13.7483C99.3983 13.6246 99.2313 13.449 99.108 13.2215C98.9848 12.994 98.9212 12.7346 98.9212 12.4392C98.9212 12.1439 98.9848 11.8844 99.108 11.6569C99.2313 11.4294 99.4022 11.2538 99.613 11.1301C99.8277 11.0064 100.066 10.9425 100.329 10.9425C100.591 10.9425 100.83 11.0064 101.044 11.1301C101.259 11.2538 101.426 11.4294 101.549 11.6569C101.673 11.8844 101.736 12.1439 101.736 12.4392C101.736 12.7346 101.673 12.994 101.549 13.2215C101.426 13.449 101.255 13.6246 101.044 13.7483C100.83 13.8721 100.591 13.9359 100.329 13.9359ZM100.329 15.1612C100.881 15.1612 101.374 15.0455 101.816 14.81C102.253 14.5745 102.599 14.2512 102.849 13.8401C103.1 13.425 103.227 12.9621 103.227 12.4432C103.227 11.9243 103.1 11.4574 102.849 11.0463C102.599 10.6312 102.253 10.3079 101.816 10.0724C101.378 9.83694 100.881 9.72119 100.329 9.72119C99.776 9.72119 99.283 9.83694 98.8416 10.0724C98.4043 10.3079 98.0584 10.6312 97.8079 11.0463C97.5574 11.4614 97.4302 11.9243 97.4302 12.4432C97.4302 12.9621 97.5574 13.429 97.8079 13.8401C98.0584 14.2552 98.4043 14.5785 98.8416 14.81C99.279 15.0455 99.776 15.1612 100.329 15.1612Z" fill="#7DC34B"/>
</g>
<path d="M107.1 12.9023L106.44 11.2459L105.78 12.9023H107.1ZM107.529 13.9799H105.347L104.941 14.9857H103.454L105.728 9.80908H107.164L109.446 14.9857H107.927L107.521 13.9799H107.529Z" fill="#7DC34B"/>
<mask id="mask1_887_2685" style="mask-type:luminance" maskUnits="userSpaceOnUse" x="0" y="3" width="115" height="40">
<path d="M115 3H0V43H115V3Z" fill="white"/>
</mask>
<g mask="url(#mask1_887_2685)">
<path d="M111.616 10.8586H112.503C112.781 10.8586 112.988 10.9105 113.111 11.0103C113.239 11.1101 113.298 11.2697 113.298 11.4852C113.298 11.7008 113.235 11.8684 113.111 11.9682C112.988 12.068 112.781 12.1198 112.503 12.1198H111.616V10.8546V10.8586ZM113.692 12.958C113.986 12.8542 114.241 12.6626 114.423 12.4072C114.594 12.1558 114.682 11.8365 114.682 11.4613C114.682 10.9265 114.511 10.5154 114.173 10.232C113.835 9.94862 113.35 9.80493 112.73 9.80493H110.269V14.9815H111.616V13.1057H112.384L113.473 14.9736V14.9815H115L113.692 12.954V12.958Z" fill="#7DC34B"/>
<path d="M93.3192 14.7462C92.9017 14.5267 92.5478 14.1955 92.3053 13.7884C91.8123 12.9262 91.8123 11.8686 92.3053 11.0065C92.5478 10.5994 92.8977 10.2681 93.3192 10.0486C93.7685 9.8131 94.2654 9.69735 94.7744 9.70533C95.2117 9.69735 95.6451 9.78516 96.0506 9.95678C96.4204 10.1164 96.7425 10.3679 96.9969 10.6832L96.0705 11.5253C95.7365 11.1222 95.331 10.9187 94.8539 10.9187C94.5915 10.9147 94.337 10.9785 94.1064 11.1023C93.8917 11.222 93.7128 11.4056 93.5975 11.6251C93.355 12.112 93.355 12.6828 93.5975 13.1697C93.7128 13.3892 93.8877 13.5688 94.1064 13.6926C94.337 13.8203 94.5954 13.8801 94.8539 13.8762C95.331 13.8762 95.7365 13.6726 96.0705 13.2695L96.9969 14.1116C96.7464 14.4269 96.4244 14.6784 96.0546 14.838C95.653 15.0097 95.2157 15.0975 94.7783 15.0895C94.2734 15.0975 93.7724 14.9777 93.3231 14.7462" fill="#7DC34B"/>
<path d="M19.0805 13.0499C17.9633 12.6708 16.7228 12.4712 15.3551 12.4712C13.8482 12.4712 12.4526 12.7266 11.1803 13.2375C9.90406 13.7484 8.80272 14.4828 7.87236 15.4446V12.8663H0V36.5382H8.26597V25.0954C8.26597 23.2315 8.69538 21.8346 9.5502 20.9006C10.405 19.9707 11.5461 19.5037 12.9655 19.5037C15.5459 19.5037 16.8381 21.1202 16.8381 24.353V36.5382H25.1041V22.996C25.1041 21.4035 24.9132 19.9986 24.5474 18.7693C22.0068 17.7356 20.0109 15.6522 19.0845 13.0499" fill="#7DC34B"/>
<path d="M28.1615 16.5821C31.8989 16.5821 34.9246 13.5408 34.9246 9.79306C34.9246 6.0453 31.8949 3 28.1615 3C24.4281 3 21.3984 6.04131 21.3984 9.78906C21.3984 13.5368 24.4281 16.5781 28.1615 16.5781" fill="#7DC34B"/>
<path d="M69.4316 19.6753H64.4538V36.5262H69.4316V19.6753ZM42.6617 27.9091C42.6617 29.3619 42.2521 30.5194 41.4331 31.3855C40.6141 32.2516 39.5644 32.6826 38.2881 32.6826C37.0119 32.6826 35.9582 32.2516 35.1273 31.3855C34.2963 30.5194 33.8828 29.3619 33.8828 27.9091C33.8828 26.4563 34.2963 25.2989 35.1273 24.4328C35.9582 23.5667 37.0119 23.1356 38.2881 23.1356C39.5644 23.1356 40.6141 23.5667 41.4331 24.4328C42.2521 25.2989 42.6617 26.4563 42.6617 27.9091ZM46.4905 32.4911C47.2976 31.146 47.7032 29.6174 47.7032 27.9091C47.7032 26.2009 47.2976 24.6723 46.4905 23.3272C45.6834 21.9822 44.5661 20.9285 43.1388 20.1702C41.7114 19.4118 40.0972 19.0327 38.2881 19.0327C36.4791 19.0327 34.8569 19.4118 33.4216 20.1702C31.9863 20.9285 30.8611 21.9822 30.054 23.3272C29.2469 24.6723 28.8413 26.2009 28.8413 27.9091C28.8413 29.6174 29.2469 31.146 30.054 32.4911C30.8611 33.8361 31.9863 34.8898 33.4216 35.6481C34.8569 36.4064 36.4791 36.7856 38.2881 36.7856C40.0972 36.7856 41.7154 36.4064 43.1388 35.6481C44.5622 34.8898 45.6794 33.8361 46.4905 32.4911ZM56.7246 30.5354V23.5188H61.0027V19.6753H56.7246V15.4765H51.7467V19.6753H49.0987V23.5188H51.7467V30.5992C51.7467 32.6308 52.3033 34.1674 53.4205 35.2131C54.5378 36.2588 56.1162 36.7816 58.1599 36.7816C58.9471 36.7816 59.6986 36.6898 60.4102 36.5102C61.1219 36.3306 61.7223 36.0552 62.2153 35.692L60.8754 32.1678C60.3228 32.5948 59.6508 32.8104 58.8636 32.8104C58.1837 32.8104 57.6549 32.6148 57.2852 32.2197C56.9114 31.8245 56.7285 31.2618 56.7285 30.5394M69.1772 15.7918C69.7537 15.249 70.04 14.5585 70.04 13.7243C70.04 12.954 69.7537 12.3154 69.1772 11.8006C68.6047 11.2857 67.8572 11.0303 66.9427 11.0303C66.0282 11.0303 65.2847 11.2977 64.7082 11.8325C64.1357 12.3673 63.8455 13.0299 63.8455 13.8201C63.8455 14.6104 64.1317 15.2729 64.7082 15.8078C65.2808 16.3426 66.0282 16.61 66.9427 16.61C67.8572 16.61 68.6007 16.3386 69.1772 15.7918ZM102.36 19.6792H97.5773L92.8817 30.9904L88.214 19.6792H80.1786V18.9449C80.1786 17.2805 80.934 16.4464 82.4449 16.4464C83.2122 16.4464 83.8802 16.6499 84.4567 17.057L85.7648 13.437C85.3195 13.1376 84.7589 12.9061 84.0909 12.7465C83.419 12.5868 82.7113 12.507 81.9678 12.507C79.8605 12.507 78.2264 13.0818 77.0694 14.2352C75.9084 15.3887 75.3319 16.9493 75.3319 18.9129V19.6832H72.684V23.5268H75.3319V36.5342H80.3098V23.5228H84.743L90.365 36.6579L90.3013 36.8175C89.9594 37.5878 89.5777 38.1346 89.1523 38.4659C88.7269 38.7972 88.1742 38.9608 87.4943 38.9608C87.0053 38.9608 86.5083 38.865 86.0113 38.6735C85.5103 38.4819 85.069 38.2145 84.6873 37.8712L82.8703 41.4274C83.423 41.9183 84.1347 42.3015 85.0094 42.5809C85.8801 42.8563 86.7667 42.996 87.6573 42.996C89.2954 42.996 90.695 42.5888 91.8559 41.7786C93.0169 40.9684 93.987 39.5675 94.7782 37.5839L102.376 19.6753L102.36 19.6792Z" fill="#006059"/>
</g>
</g>
<defs>
<clipPath id="clip0_887_2685">
<rect width="115" height="40" fill="white" transform="translate(0 3)"/>
</clipPath>
</defs>
</svg>
