<svg width="1303" height="323" viewBox="0 0 1303 323" fill="none" xmlns="http://www.w3.org/2000/svg">
<rect y="136" width="116" height="2" fill="#FCC128"/>
<rect x="256" y="136" width="72" height="2" fill="#FCC128"/>
<rect x="481" y="136" width="72" height="2" fill="#FCC128"/>
<rect x="704" y="136" width="72" height="2" fill="#FCC128"/>
<rect x="886" y="136" width="72" height="2" fill="#FCC128"/>
<rect x="1038" y="136" width="219" height="2" fill="#FCC128"/>
<rect y="148" width="116" height="2" fill="#FCC128"/>
<rect x="256" y="148" width="72" height="2" fill="#FCC128"/>
<rect x="481" y="148" width="72" height="2" fill="#FCC128"/>
<rect x="704" y="148" width="72" height="2" fill="#FCC128"/>
<rect x="886" y="148" width="72" height="2" fill="#FCC128"/>
<rect x="1038" y="148" width="219" height="2" fill="#FCC128"/>
<rect y="160" width="116" height="2" fill="#FCC128"/>
<rect x="256" y="160" width="72" height="2" fill="#FCC128"/>
<rect x="481" y="160" width="72" height="2" fill="#FCC128"/>
<rect x="704" y="160" width="72" height="2" fill="#FCC128"/>
<rect x="886" y="160" width="72" height="2" fill="#FCC128"/>
<rect x="1038" y="160" width="219" height="2" fill="#FCC128"/>
<rect y="172" width="116" height="2" fill="#FCC128"/>
<rect x="256" y="172" width="72" height="2" fill="#FCC128"/>
<rect x="481" y="172" width="72" height="2" fill="#FCC128"/>
<rect x="704" y="172" width="72" height="2" fill="#FCC128"/>
<rect x="886" y="172" width="72" height="2" fill="#FCC128"/>
<rect x="1038" y="172" width="219" height="2" fill="#FCC128"/>
<rect y="142" width="116" height="2" fill="#FCC128"/>
<rect x="256" y="142" width="72" height="2" fill="#FCC128"/>
<rect x="481" y="142" width="72" height="2" fill="#FCC128"/>
<rect x="704" y="142" width="72" height="2" fill="#FCC128"/>
<rect x="886" y="142" width="72" height="2" fill="#FCC128"/>
<rect x="1038" y="142" width="219" height="2" fill="#FCC128"/>
<rect y="154" width="116" height="2" fill="#FCC128"/>
<rect x="256" y="154" width="72" height="2" fill="#FCC128"/>
<rect x="481" y="154" width="72" height="2" fill="#FCC128"/>
<rect x="704" y="154" width="72" height="2" fill="#FCC128"/>
<rect x="886" y="154" width="72" height="2" fill="#FCC128"/>
<rect x="1038" y="154" width="219" height="2" fill="#FCC128"/>
<rect y="166" width="116" height="2" fill="#FCC128"/>
<rect x="256" y="166" width="72" height="2" fill="#FCC128"/>
<rect x="481" y="166" width="72" height="2" fill="#FCC128"/>
<rect x="704" y="166" width="72" height="2" fill="#FCC128"/>
<rect x="886" y="166" width="72" height="2" fill="#FCC128"/>
<rect x="1038" y="166" width="219" height="2" fill="#FCC128"/>
<rect y="178" width="116" height="2" fill="#FCC128"/>
<rect x="256" y="178" width="72" height="2" fill="#FCC128"/>
<rect x="481" y="178" width="72" height="2" fill="#FCC128"/>
<rect x="704" y="178" width="72" height="2" fill="#FCC128"/>
<rect x="886" y="178" width="72" height="2" fill="#FCC128"/>
<rect x="1038" y="178" width="219" height="2" fill="#FCC128"/>
<circle cx="1265" cy="158" r="33" fill="#FCC128"/>
<path d="M993.318 219V103.976H954.37V98.88H1038.09V103.976H999.142V219H993.318Z" fill="#0F0F0F"/>
<path d="M812.873 218V97.88H877.301V102.976H818.697V151.388H867.837V156.484H818.697V212.904H879.121V218H812.873Z" fill="#0F0F0F"/>
<path d="M588.333 216V95.88H597.797L623.641 168.68C625.34 173.169 626.978 177.719 628.555 182.33C630.254 186.819 631.892 191.369 633.469 195.98H634.197C635.896 191.369 637.473 186.819 638.929 182.33C640.506 177.719 642.084 173.169 643.661 168.68L669.505 95.88H678.969V216H673.145V132.28C673.145 129.125 673.145 125.789 673.145 122.27C673.266 118.63 673.388 114.99 673.509 111.35C673.63 107.71 673.752 104.252 673.873 100.976H673.145L663.863 127.548L636.745 202.532H630.557L603.257 127.548L593.793 100.976H593.065C593.186 104.252 593.308 107.71 593.429 111.35C593.55 114.99 593.611 118.63 593.611 122.27C593.732 125.789 593.793 129.125 593.793 132.28V216H588.333Z" fill="#0F0F0F"/>
<path d="M407.625 220.184C398.161 220.184 389.729 217.636 382.327 212.54C375.047 207.323 369.284 200.043 365.037 190.7C360.912 181.236 358.849 170.195 358.849 157.576C358.849 144.957 360.912 134.037 365.037 124.816C369.284 115.473 375.047 108.315 382.327 103.34C389.729 98.244 398.161 95.696 407.625 95.696C417.089 95.696 425.461 98.244 432.741 103.34C440.143 108.315 445.906 115.473 450.031 124.816C454.278 134.037 456.401 144.957 456.401 157.576C456.401 170.195 454.278 181.236 450.031 190.7C445.906 200.043 440.143 207.323 432.741 212.54C425.461 217.636 417.089 220.184 407.625 220.184ZM407.625 214.724C416.119 214.724 423.52 212.358 429.829 207.626C436.26 202.894 441.235 196.281 444.753 187.788C448.393 179.173 450.213 169.103 450.213 157.576C450.213 146.049 448.393 136.1 444.753 127.728C441.235 119.235 436.26 112.683 429.829 108.072C423.52 103.461 416.119 101.156 407.625 101.156C399.132 101.156 391.67 103.461 385.239 108.072C378.93 112.683 373.955 119.235 370.315 127.728C366.797 136.1 365.037 146.049 365.037 157.576C365.037 169.103 366.797 179.173 370.315 187.788C373.955 196.281 378.93 202.894 385.239 207.626C391.67 212.358 399.132 214.724 407.625 214.724Z" fill="#0F0F0F"/>
<path d="M202.696 220.184C192.868 220.184 184.193 217.636 176.67 212.54C169.269 207.323 163.505 200.043 159.38 190.7C155.255 181.236 153.192 170.195 153.192 157.576C153.192 148.112 154.345 139.619 156.65 132.096C159.077 124.452 162.535 117.9 167.024 112.44C171.513 106.98 176.852 102.855 183.04 100.064C189.228 97.152 196.144 95.696 203.788 95.696C210.704 95.696 216.771 97.152 221.988 100.064C227.205 102.976 231.331 106.252 234.364 109.892L230.724 113.896C227.448 110.013 223.565 106.919 219.076 104.614C214.587 102.309 209.491 101.156 203.788 101.156C194.567 101.156 186.619 103.461 179.946 108.072C173.394 112.683 168.298 119.235 164.658 127.728C161.139 136.1 159.38 146.049 159.38 157.576C159.38 169.103 161.139 179.173 164.658 187.788C168.177 196.281 173.212 202.894 179.764 207.626C186.316 212.358 194.081 214.724 203.06 214.724C209.491 214.724 215.193 213.45 220.168 210.902C225.143 208.354 229.875 204.532 234.364 199.436L238.004 203.076C233.515 208.293 228.479 212.479 222.898 215.634C217.317 218.667 210.583 220.184 202.696 220.184Z" fill="#0F0F0F"/>
</svg>
