<svg width="138" height="48" viewBox="0 0 138 48" fill="none" xmlns="http://www.w3.org/2000/svg">
<rect y="8" width="138" height="33" fill="#212121"/>
<path d="M126.3 18.1899V31.4519H123.64V22.8259L120.087 31.4519H118.073L114.501 22.8259V31.4519H111.841V18.1899H114.862L119.08 28.0509L123.298 18.1899H126.3Z" fill="white"/>
<path d="M101.215 18.1899V26.3979C101.215 27.2973 101.45 27.9876 101.918 28.4689C102.387 28.9376 103.046 29.1719 103.894 29.1719C104.756 29.1719 105.421 28.9376 105.889 28.4689C106.358 27.9876 106.592 27.2973 106.592 26.3979V18.1899H109.271V26.3789C109.271 27.5063 109.024 28.4626 108.53 29.2479C108.049 30.0206 107.397 30.6033 106.573 30.9959C105.763 31.3886 104.857 31.5849 103.856 31.5849C102.868 31.5849 101.969 31.3886 101.158 30.9959C100.36 30.6033 99.7268 30.0206 99.2582 29.2479C98.7895 28.4626 98.5552 27.5063 98.5552 26.3789V18.1899H101.215Z" fill="white"/>
<path d="M87.9671 18.1899V26.3979C87.9671 27.2973 88.2015 27.9876 88.6701 28.4689C89.1388 28.9376 89.7975 29.1719 90.6461 29.1719C91.5075 29.1719 92.1725 28.9376 92.6411 28.4689C93.1098 27.9876 93.3441 27.2973 93.3441 26.3979V18.1899H96.0231V26.3789C96.0231 27.5063 95.7761 28.4626 95.2821 29.2479C94.8008 30.0206 94.1485 30.6033 93.3251 30.9959C92.5145 31.3886 91.6088 31.5849 90.6081 31.5849C89.6201 31.5849 88.7208 31.3886 87.9101 30.9959C87.1121 30.6033 86.4788 30.0206 86.0101 29.2479C85.5415 28.4626 85.3071 27.5063 85.3071 26.3789V18.1899H87.9671Z" fill="white"/>
<path d="M82.7165 31.4519H80.0565L74.0335 22.3509V31.4519H71.3735V18.1709H74.0335L80.0565 27.2909V18.1709H82.7165V31.4519Z" fill="white"/>
<path d="M68.7454 18.1899V31.4519H66.0854V18.1899H68.7454Z" fill="white"/>
<path d="M64.1445 18.1899V20.3369H60.6105V31.4519H57.9505V20.3369H54.4165V18.1899H64.1445Z" fill="white"/>
<path d="M52.4909 31.4519H49.8309L43.8079 22.3509V31.4519H41.1479V18.1709H43.8079L49.8309 27.2909V18.1709H52.4909V31.4519Z" fill="white"/>
<path d="M32.386 31.585C31.1447 31.585 30.0047 31.2937 28.966 30.711C27.9273 30.1283 27.104 29.324 26.496 28.298C25.888 27.2593 25.584 26.0877 25.584 24.783C25.584 23.491 25.888 22.332 26.496 21.306C27.104 20.2673 27.9273 19.4567 28.966 18.874C30.0047 18.2913 31.1447 18 32.386 18C33.64 18 34.78 18.2913 35.806 18.874C36.8447 19.4567 37.6617 20.2673 38.257 21.306C38.865 22.332 39.169 23.491 39.169 24.783C39.169 26.0877 38.865 27.2593 38.257 28.298C37.6617 29.324 36.8447 30.1283 35.806 30.711C34.7673 31.2937 33.6273 31.585 32.386 31.585ZM32.386 29.21C33.184 29.21 33.887 29.0327 34.495 28.678C35.103 28.3107 35.578 27.7913 35.92 27.12C36.262 26.4487 36.433 25.6697 36.433 24.783C36.433 23.8963 36.262 23.1237 35.92 22.465C35.578 21.7937 35.103 21.2807 34.495 20.926C33.887 20.5713 33.184 20.394 32.386 20.394C31.588 20.394 30.8787 20.5713 30.258 20.926C29.65 21.2807 29.175 21.7937 28.833 22.465C28.491 23.1237 28.32 23.8963 28.32 24.783C28.32 25.6697 28.491 26.4487 28.833 27.12C29.175 27.7913 29.65 28.3107 30.258 28.678C30.8787 29.0327 31.588 29.21 32.386 29.21Z" fill="white"/>
<path d="M11 24.8018C11 23.4971 11.2913 22.3318 11.874 21.3058C12.4693 20.2671 13.2737 19.4628 14.287 18.8928C15.313 18.3101 16.4593 18.0188 17.726 18.0188C19.208 18.0188 20.5063 18.3988 21.621 19.1588C22.7357 19.9188 23.5147 20.9701 23.958 22.3128H20.899C20.595 21.6795 20.1643 21.2045 19.607 20.8878C19.0623 20.5711 18.429 20.4128 17.707 20.4128C16.9343 20.4128 16.244 20.5965 15.636 20.9638C15.0407 21.3185 14.572 21.8251 14.23 22.4838C13.9007 23.1425 13.736 23.9151 13.736 24.8018C13.736 25.6758 13.9007 26.4485 14.23 27.1198C14.572 27.7785 15.0407 28.2915 15.636 28.6588C16.244 29.0135 16.9343 29.1908 17.707 29.1908C18.429 29.1908 19.0623 29.0325 19.607 28.7158C20.1643 28.3865 20.595 27.9051 20.899 27.2718H23.958C23.5147 28.6271 22.7357 29.6848 21.621 30.4448C20.519 31.1921 19.2207 31.5658 17.726 31.5658C16.4593 31.5658 15.313 31.2808 14.287 30.7108C13.2737 30.1281 12.4693 29.3238 11.874 28.2978C11.2913 27.2718 11 26.1065 11 24.8018Z" fill="white"/>
</svg>
