<svg width="132" height="36" viewBox="0 0 132 36" fill="none" xmlns="http://www.w3.org/2000/svg">
<path d="M125.192 27.8796C123.829 27.8796 122.616 27.6463 121.552 27.1796C120.488 26.713 119.648 26.0783 119.032 25.2756C118.416 24.4543 118.071 23.5396 117.996 22.5316H122.728C122.784 23.073 123.036 23.5116 123.484 23.8476C123.932 24.1836 124.483 24.3516 125.136 24.3516C125.733 24.3516 126.191 24.2396 126.508 24.0156C126.844 23.773 127.012 23.465 127.012 23.0916C127.012 22.6436 126.779 22.317 126.312 22.1116C125.845 21.8876 125.089 21.645 124.044 21.3836C122.924 21.1223 121.991 20.8516 121.244 20.5716C120.497 20.273 119.853 19.8156 119.312 19.1996C118.771 18.565 118.5 17.7156 118.5 16.6516C118.5 15.7556 118.743 14.9436 119.228 14.2156C119.732 13.469 120.46 12.881 121.412 12.4516C122.383 12.0223 123.531 11.8076 124.856 11.8076C126.816 11.8076 128.356 12.293 129.476 13.2636C130.615 14.2343 131.268 15.5223 131.436 17.1276H127.012C126.937 16.5863 126.695 16.157 126.284 15.8396C125.892 15.5223 125.369 15.3636 124.716 15.3636C124.156 15.3636 123.727 15.4756 123.428 15.6996C123.129 15.905 122.98 16.1943 122.98 16.5676C122.98 17.0156 123.213 17.3516 123.68 17.5756C124.165 17.7996 124.912 18.0236 125.92 18.2476C127.077 18.5463 128.02 18.845 128.748 19.1436C129.476 19.4236 130.111 19.8903 130.652 20.5436C131.212 21.1783 131.501 22.037 131.52 23.1196C131.52 24.0343 131.259 24.8556 130.736 25.5836C130.232 26.293 129.495 26.853 128.524 27.2636C127.572 27.6743 126.461 27.8796 125.192 27.8796Z" fill="#212121"/>
<path d="M104.62 14.2436C105.087 13.5156 105.731 12.9276 106.552 12.4796C107.373 12.0316 108.335 11.8076 109.436 11.8076C110.724 11.8076 111.891 12.1343 112.936 12.7876C113.981 13.441 114.803 14.3743 115.4 15.5876C116.016 16.801 116.324 18.2103 116.324 19.8156C116.324 21.421 116.016 22.8396 115.4 24.0716C114.803 25.285 113.981 26.2276 112.936 26.8996C111.891 27.553 110.724 27.8796 109.436 27.8796C108.353 27.8796 107.392 27.6556 106.552 27.2076C105.731 26.7596 105.087 26.181 104.62 25.4716V35.1036H99.832V12.0316H104.62V14.2436ZM111.452 19.8156C111.452 18.621 111.116 17.6876 110.444 17.0156C109.791 16.325 108.979 15.9796 108.008 15.9796C107.056 15.9796 106.244 16.325 105.572 17.0156C104.919 17.7063 104.592 18.649 104.592 19.8436C104.592 21.0383 104.919 21.981 105.572 22.6716C106.244 23.3623 107.056 23.7076 108.008 23.7076C108.96 23.7076 109.772 23.3623 110.444 22.6716C111.116 21.9623 111.452 21.0103 111.452 19.8156Z" fill="#212121"/>
<path d="M79.8765 19.8156C79.8765 18.2103 80.1751 16.801 80.7725 15.5876C81.3885 14.3743 82.2191 13.441 83.2645 12.7876C84.3098 12.1343 85.4765 11.8076 86.7645 11.8076C87.8658 11.8076 88.8271 12.0316 89.6485 12.4796C90.4885 12.9276 91.1325 13.5156 91.5805 14.2436V12.0316H96.3685V27.6556H91.5805V25.4436C91.1138 26.1716 90.4605 26.7596 89.6205 27.2076C88.7991 27.6556 87.8378 27.8796 86.7365 27.8796C85.4671 27.8796 84.3098 27.553 83.2645 26.8996C82.2191 26.2276 81.3885 25.285 80.7725 24.0716C80.1751 22.8396 79.8765 21.421 79.8765 19.8156ZM91.5805 19.8436C91.5805 18.649 91.2445 17.7063 90.5725 17.0156C89.9191 16.325 89.1165 15.9796 88.1645 15.9796C87.2125 15.9796 86.4005 16.325 85.7285 17.0156C85.0751 17.6876 84.7485 18.621 84.7485 19.8156C84.7485 21.0103 85.0751 21.9623 85.7285 22.6716C86.4005 23.3623 87.2125 23.7076 88.1645 23.7076C89.1165 23.7076 89.9191 23.3623 90.5725 22.6716C91.2445 21.981 91.5805 21.0383 91.5805 19.8436Z" fill="#212121"/>
<path d="M77.385 8V27.656H72.597V15.868L68.201 27.656H64.337L59.913 15.84V27.656H55.125V8H60.781L66.297 21.608L71.757 8H77.385Z" fill="#212121"/>
<path d="M37.2202 19.8436C37.2202 18.2196 37.5469 16.801 38.2002 15.5876C38.8722 14.3743 39.7962 13.441 40.9722 12.7876C42.1669 12.1343 43.5295 11.8076 45.0602 11.8076C47.0202 11.8076 48.6536 12.321 49.9602 13.3476C51.2855 14.3743 52.1535 15.821 52.5642 17.6876H47.4682C47.0389 16.493 46.2082 15.8956 44.9762 15.8956C44.0989 15.8956 43.3989 16.241 42.8762 16.9316C42.3535 17.6036 42.0922 18.5743 42.0922 19.8436C42.0922 21.113 42.3535 22.093 42.8762 22.7836C43.3989 23.4556 44.0989 23.7916 44.9762 23.7916C46.2082 23.7916 47.0389 23.1943 47.4682 21.9996H52.5642C52.1535 23.829 51.2855 25.2663 49.9602 26.3116C48.6349 27.357 47.0015 27.8796 45.0602 27.8796C43.5295 27.8796 42.1669 27.553 40.9722 26.8996C39.7962 26.2463 38.8722 25.313 38.2002 24.0996C37.5469 22.8863 37.2202 21.4676 37.2202 19.8436Z" fill="#212121"/>
<path d="M27.4561 27.8796C25.9254 27.8796 24.5441 27.553 23.3121 26.8996C22.0988 26.2463 21.1374 25.313 20.4281 24.0996C19.7374 22.8863 19.3921 21.4676 19.3921 19.8436C19.3921 18.2383 19.7468 16.829 20.4561 15.6156C21.1654 14.3836 22.1361 13.441 23.3681 12.7876C24.6001 12.1343 25.9814 11.8076 27.5121 11.8076C29.0428 11.8076 30.4241 12.1343 31.6561 12.7876C32.8881 13.441 33.8588 14.3836 34.5681 15.6156C35.2774 16.829 35.6321 18.2383 35.6321 19.8436C35.6321 21.449 35.2681 22.8676 34.5401 24.0996C33.8308 25.313 32.8508 26.2463 31.6001 26.8996C30.3681 27.553 28.9868 27.8796 27.4561 27.8796ZM27.4561 23.7356C28.3708 23.7356 29.1454 23.3996 29.7801 22.7276C30.4334 22.0556 30.7601 21.0943 30.7601 19.8436C30.7601 18.593 30.4428 17.6316 29.8081 16.9596C29.1921 16.2876 28.4268 15.9516 27.5121 15.9516C26.5788 15.9516 25.8041 16.2876 25.1881 16.9596C24.5721 17.613 24.2641 18.5743 24.2641 19.8436C24.2641 21.0943 24.5628 22.0556 25.1601 22.7276C25.7761 23.3996 26.5414 23.7356 27.4561 23.7356Z" fill="#212121"/>
<path d="M7.364 8C9.436 8 11.2467 8.41067 12.796 9.232C14.3453 10.0533 15.54 11.2107 16.38 12.704C17.2387 14.1787 17.668 15.8867 17.668 17.828C17.668 19.7507 17.2387 21.4587 16.38 22.952C15.54 24.4453 14.336 25.6027 12.768 26.424C11.2187 27.2453 9.41733 27.656 7.364 27.656H0V8H7.364ZM7.056 23.512C8.86667 23.512 10.276 23.0173 11.284 22.028C12.292 21.0387 12.796 19.6387 12.796 17.828C12.796 16.0173 12.292 14.608 11.284 13.6C10.276 12.592 8.86667 12.088 7.056 12.088H4.788V23.512H7.056Z" fill="#212121"/>
</svg>
