<svg width="460" height="70" viewBox="0 0 460 70" fill="none" xmlns="http://www.w3.org/2000/svg">
<path d="M447.069 51C444.218 51 441.828 50.0411 439.897 48.1233C437.965 46.2055 437 43.8311 437 41C437 38.1689 437.965 35.7945 439.897 33.8767C441.828 31.9589 444.218 31 447.069 31C449.828 31 452.172 31.9589 454.103 33.8767C456.034 35.7945 457 38.1689 457 41C457 43.8311 456.034 46.2055 454.103 48.1233C452.172 50.0411 449.828 51 447.069 51Z" fill="#D71D62"/>
<path d="M417.257 51C414.399 51 411.835 50.5105 409.565 49.5315C407.296 48.5117 405.488 47.1451 404.143 45.4318C402.841 43.7185 402.126 41.8217 402 39.7413H410.889C411.057 41.0466 411.709 42.1276 412.843 42.9843C414.02 43.8409 415.47 44.2692 417.193 44.2692C418.875 44.2692 420.178 43.9429 421.102 43.2902C422.069 42.6375 422.552 41.8013 422.552 40.7815C422.552 39.6801 421.964 38.8642 420.787 38.3339C419.652 37.7628 417.824 37.1509 415.302 36.4983C412.696 35.8864 410.553 35.2541 408.872 34.6014C407.233 33.9487 405.804 32.9493 404.585 31.6031C403.408 30.257 402.82 28.4417 402.82 26.1573C402.82 24.2809 403.366 22.5676 404.459 21.0175C405.593 19.4674 407.191 18.2436 409.25 17.3462C411.351 16.4487 413.81 16 416.626 16C420.787 16 424.107 17.0198 426.587 19.0594C429.067 21.0583 430.433 23.771 430.685 27.1976H422.237C422.111 25.8514 421.522 24.7908 420.472 24.0157C419.463 23.1999 418.097 22.792 416.374 22.792C414.777 22.792 413.537 23.0775 412.654 23.6486C411.814 24.2197 411.393 25.0152 411.393 26.035C411.393 27.1772 411.982 28.0542 413.159 28.6661C414.336 29.2372 416.164 29.8287 418.643 30.4406C421.165 31.0525 423.246 31.6847 424.885 32.3374C426.524 32.9901 427.932 34.0099 429.109 35.3969C430.328 36.743 430.958 38.5379 431 40.7815C431 42.7395 430.433 44.4936 429.298 46.0437C428.205 47.5938 426.608 48.8176 424.507 49.715C422.447 50.5717 420.03 51 417.257 51Z" fill="#440535"/>
<path d="M401 16L379.635 67H370.354L377.828 49.75L364 16H373.779L382.687 40.1875L391.719 16H401Z" fill="#440535"/>
<path d="M324 33.3776C324 29.9511 324.686 26.912 326.059 24.2605C327.473 21.609 329.366 19.5694 331.737 18.1416C334.149 16.7139 336.832 16 339.785 16C342.364 16 344.61 16.5099 346.523 17.5297C348.478 18.5495 350.038 19.8345 351.203 21.3846V16.5507H360V50.4493H351.203V45.493C350.08 47.0839 348.52 48.4097 346.523 49.4703C344.568 50.4901 342.302 51 339.723 51C336.811 51 334.149 50.2657 331.737 48.7972C329.366 47.3287 327.473 45.2686 326.059 42.6171C324.686 39.9248 324 36.845 324 33.3776ZM351.203 33.5C351.203 31.4196 350.787 29.6451 349.955 28.1766C349.123 26.6673 348 25.5251 346.586 24.75C345.172 23.9342 343.653 23.5262 342.031 23.5262C340.409 23.5262 338.912 23.9138 337.539 24.6888C336.166 25.4639 335.043 26.6061 334.17 28.1154C333.338 29.5839 332.922 31.338 332.922 33.3776C332.922 35.4173 333.338 37.2121 334.17 38.7622C335.043 40.2716 336.166 41.4341 337.539 42.25C338.953 43.0658 340.451 43.4738 342.031 43.4738C343.653 43.4738 345.172 43.0862 346.586 42.3112C348 41.4953 349.123 40.3531 349.955 38.8846C350.787 37.3753 351.203 35.5804 351.203 33.5Z" fill="#440535"/>
<path d="M323 16L312.851 51H303.39L297.063 26.5505L290.735 51H281.212L271 16H279.896L286.036 42.6607L292.677 16H301.949L308.465 42.5975L314.605 16H323Z" fill="#440535"/>
<path d="M255.5 15.3054C258.125 15.3054 260.458 15.8982 262.5 17.0838C264.542 18.227 266.125 19.9419 267.25 22.2284C268.417 24.4725 269 27.1824 269 30.3581V51H260.25V31.5649C260.25 28.7703 259.562 26.632 258.187 25.15C256.812 23.6257 254.937 22.8635 252.562 22.8635C250.146 22.8635 248.229 23.6257 246.813 25.15C245.438 26.632 244.75 28.7703 244.75 31.5649V51H236V4H244.75V20.1959C245.875 18.6716 247.375 17.486 249.25 16.6392C251.125 15.75 253.208 15.3054 255.5 15.3054Z" fill="#440535"/>
<path d="M223.508 23.6816V40.3589C223.508 41.5205 223.769 42.371 224.293 42.9103C224.857 43.4081 225.783 43.657 227.073 43.657H231V51H225.683C218.553 51 214.988 47.4322 214.988 40.2967V23.6816H211V16.5253H214.988V8H223.508V16.5253H231V23.6816H223.508Z" fill="#440535"/>
<path d="M170 33.3776C170 29.9511 170.686 26.912 172.059 24.2605C173.473 21.609 175.366 19.5694 177.737 18.1416C180.149 16.7139 182.832 16 185.785 16C188.364 16 190.61 16.5099 192.523 17.5297C194.478 18.5495 196.038 19.8345 197.203 21.3846V16.5507H206V50.4493H197.203V45.493C196.08 47.0839 194.52 48.4097 192.523 49.4703C190.568 50.4901 188.302 51 185.723 51C182.811 51 180.149 50.2657 177.737 48.7972C175.366 47.3287 173.473 45.2686 172.059 42.6171C170.686 39.9248 170 36.845 170 33.3776ZM197.203 33.5C197.203 31.4196 196.787 29.6451 195.955 28.1766C195.123 26.6673 194 25.5251 192.586 24.75C191.172 23.9342 189.653 23.5262 188.031 23.5262C186.409 23.5262 184.912 23.9138 183.539 24.6888C182.166 25.4639 181.043 26.6061 180.17 28.1154C179.338 29.5839 178.922 31.338 178.922 33.3776C178.922 35.4173 179.338 37.2121 180.17 38.7622C181.043 40.2716 182.166 41.4341 183.539 42.25C184.953 43.0658 186.451 43.4738 188.031 43.4738C189.653 43.4738 191.172 43.0862 192.586 42.3112C194 41.4953 195.123 40.3531 195.955 38.8846C196.787 37.3753 197.203 35.5804 197.203 33.5Z" fill="#440535"/>
<path d="M167 20.616C167 22.9694 166.452 25.1757 165.356 27.235C164.3 29.2942 162.615 30.9542 160.301 32.2149C158.027 33.4756 155.144 34.106 151.652 34.106H144.527V51H136V7H151.652C154.941 7 157.743 7.58835 160.057 8.76505C162.371 9.94174 164.097 11.5597 165.234 13.6189C166.411 15.6781 167 18.0105 167 20.616ZM151.287 26.9828C153.642 26.9828 155.388 26.4365 156.525 25.3438C157.661 24.2092 158.23 22.6332 158.23 20.616C158.23 16.3295 155.916 14.1862 151.287 14.1862H144.527V26.9828H151.287Z" fill="#440535"/>
<path d="M130 32.2014C130 33.2733 129.936 34.4069 129.809 35.6025H101.921C102.134 38.9417 103.301 41.5595 105.423 43.4558C107.588 45.311 110.199 46.2385 113.255 46.2385C115.759 46.2385 117.839 45.682 119.494 44.5689C121.192 43.4146 122.381 41.8893 123.06 39.9929H129.3C128.366 43.2497 126.498 45.9087 123.697 47.97C120.895 49.99 117.414 51 113.255 51C109.944 51 106.973 50.2786 104.341 48.8357C101.752 47.3928 99.7141 45.3522 98.2285 42.7138C96.7428 40.0342 96 36.9423 96 33.4382C96 29.934 96.7216 26.8628 98.1648 24.2244C99.608 21.586 101.624 19.566 104.213 18.1643C106.845 16.7214 109.859 16 113.255 16C116.566 16 119.494 16.7008 122.041 18.1025C124.588 19.5041 126.541 21.4417 127.899 23.9152C129.3 26.3475 130 29.1095 130 32.2014ZM124.015 31.0265C124.015 28.8828 123.527 27.0483 122.551 25.523C121.574 23.9564 120.237 22.7815 118.539 21.9982C116.884 21.1737 115.037 20.7615 113 20.7615C110.071 20.7615 107.567 21.6684 105.487 23.4823C103.449 25.2962 102.282 27.811 101.985 31.0265H124.015Z" fill="#440535"/>
<path d="M94 21.2827H86.9422V51H81.3574V21.2827H77V16.5707H81.3574V14.1204C81.3574 10.267 82.3189 7.46073 84.2419 5.70157C86.2058 3.90052 89.3357 3 93.6318 3V7.77487C91.1769 7.77487 89.438 8.27749 88.4152 9.28272C87.4332 10.2461 86.9422 11.8586 86.9422 14.1204V16.5707H94V21.2827Z" fill="#440535"/>
<path d="M69.0656 10.8213C67.9289 10.8213 66.9672 10.4428 66.1803 9.68594C65.3934 8.92904 65 8.00394 65 6.91064C65 5.81734 65.3934 4.89225 66.1803 4.13535C66.9672 3.37845 67.9289 3 69.0656 3C70.1585 3 71.0765 3.37845 71.8197 4.13535C72.6065 4.89225 73 5.81734 73 6.91064C73 8.00394 72.6065 8.92904 71.8197 9.68594C71.0765 10.4428 70.1585 10.8213 69.0656 10.8213ZM71.9508 16.435V51H65.9836V16.435H71.9508Z" fill="#440535"/>
<path d="M46.4328 46.3286H61V51H41V7H46.4328V46.3286Z" fill="#440535"/>
<path d="M36 32.2014C36 33.2733 35.9382 34.4069 35.8146 35.6025H8.74719C8.95318 38.9417 10.0861 41.5595 12.1461 43.4558C14.2472 45.311 16.7809 46.2385 19.7472 46.2385C22.1779 46.2385 24.1966 45.682 25.8034 44.5689C27.4513 43.4146 28.6049 41.8893 29.264 39.9929H35.3202C34.4139 43.2497 32.6011 45.9087 29.882 47.97C27.1629 49.99 23.7846 51 19.7472 51C16.5337 51 13.6498 50.2786 11.0955 48.8357C8.5824 47.3928 6.60487 45.3522 5.16292 42.7138C3.72097 40.0342 3 36.9423 3 33.4382C3 29.934 3.70037 26.8628 5.10112 24.2244C6.50187 21.586 8.4588 19.566 10.9719 18.1643C13.5262 16.7214 16.4513 16 19.7472 16C22.9607 16 25.8034 16.7008 28.2753 18.1025C30.7472 19.5041 32.6423 21.4417 33.9607 23.9152C35.3202 26.3475 36 29.1095 36 32.2014ZM30.191 31.0265C30.191 28.8828 29.7172 27.0483 28.7697 25.523C27.8221 23.9564 26.5243 22.7815 24.8764 21.9982C23.2697 21.1737 21.4775 20.7615 19.5 20.7615C16.6573 20.7615 14.2266 21.6684 12.2079 23.4823C10.2303 25.2962 9.09738 27.811 8.80899 31.0265H30.191Z" fill="#440535"/>
</svg>
