<svg xmlns="http://www.w3.org/2000/svg" viewBox="0 0 160 36" fill="none">
  <!-- Colorful wheel / lens icon -->
  <g transform="translate(16,18)">
    <path d="M0,-13 A13,13 0 0,1 11.26,-6.5 L0,0Z" fill="#e05a1e"/>
    <path d="M11.26,-6.5 A13,13 0 0,1 11.26,6.5 L0,0Z" fill="#f5a623"/>
    <path d="M11.26,6.5 A13,13 0 0,1 0,13 L0,0Z" fill="#7bc67e"/>
    <path d="M0,13 A13,13 0 0,1 -11.26,6.5 L0,0Z" fill="#4a90d9"/>
    <path d="M-11.26,6.5 A13,13 0 0,1 -11.26,-6.5 L0,0Z" fill="#9b59b6"/>
    <path d="M-11.26,-6.5 A13,13 0 0,1 0,-13 L0,0Z" fill="#e74c3c"/>
    <circle r="5" fill="white"/>
  </g>
  <text x="35" y="24" font-family="Poppins, sans-serif" font-size="16" font-weight="400" fill="#1a1a1a">eLife </text>
  <text x="70" y="24" font-family="Poppins, sans-serif" font-size="16" font-weight="700" fill="#1a1a1a">Lens</text>
</svg>
