<svg width="130" height="48" viewBox="0 0 130 48" fill="none" xmlns="http://www.w3.org/2000/svg">
<path d="M13.918 31.9551C8.60292 31.5772 4.05387 28.4305 1.70508 23.9482L16.6279 23.5664L13.918 31.9551ZM28.7646 22.9492C26.7284 27.6528 22.3543 31.1069 17.1064 31.8457L21.665 17.7344L28.7646 22.9492ZM8.79785 20.7666L0.53418 20.9775C0.186121 19.71 0 18.3752 0 16.9971C4.61478e-05 13.1143 1.47458 9.57545 3.89551 6.91211L8.79785 20.7666ZM19.1172 15.8633L17.6055 20.541L11.9521 20.6855L10.2246 15.8047L14.7656 12.668L19.1172 15.8633ZM24.8564 5.69727C28.0047 8.44643 29.9941 12.4891 29.9941 16.9971C29.9941 17.9973 29.8948 18.9745 29.708 19.9199L17.377 10.8643L24.8564 5.69727ZM14.9971 2C17.6221 2 20.0892 2.67531 22.2354 3.86035L9.18848 12.875L6.31738 4.76367C8.76697 3.02256 11.7629 2 14.9971 2Z" fill="#212121"/>
<path d="M125.254 24.5111C124.393 24.5111 123.62 24.3591 122.936 24.0551C122.252 23.7384 121.708 23.3141 121.302 22.7821C120.91 22.2501 120.694 21.6611 120.656 21.0151H123.335C123.386 21.4204 123.582 21.7561 123.924 22.0221C124.279 22.2881 124.716 22.4211 125.235 22.4211C125.742 22.4211 126.135 22.3197 126.413 22.1171C126.705 21.9144 126.85 21.6547 126.85 21.3381C126.85 20.9961 126.673 20.7427 126.318 20.5781C125.976 20.4007 125.425 20.2107 124.665 20.0081C123.88 19.8181 123.234 19.6217 122.727 19.4191C122.233 19.2164 121.803 18.9061 121.435 18.4881C121.081 18.0701 120.903 17.5064 120.903 16.7971C120.903 16.2144 121.068 15.6824 121.397 15.2011C121.739 14.7197 122.221 14.3397 122.841 14.0611C123.475 13.7824 124.216 13.6431 125.064 13.6431C126.318 13.6431 127.319 13.9597 128.066 14.5931C128.814 15.2137 129.225 16.0561 129.301 17.1201H126.755C126.717 16.7021 126.54 16.3727 126.223 16.1321C125.919 15.8787 125.508 15.7521 124.988 15.7521C124.507 15.7521 124.133 15.8407 123.867 16.0181C123.614 16.1954 123.487 16.4424 123.487 16.7591C123.487 17.1137 123.665 17.3861 124.019 17.5761C124.374 17.7534 124.925 17.9371 125.672 18.1271C126.432 18.3171 127.059 18.5134 127.553 18.7161C128.047 18.9187 128.472 19.2354 128.826 19.6661C129.194 20.0841 129.384 20.6414 129.396 21.3381C129.396 21.9461 129.225 22.4907 128.883 22.9721C128.554 23.4534 128.073 23.8334 127.439 24.1121C126.819 24.3781 126.09 24.5111 125.254 24.5111Z" fill="#212121"/>
<path d="M114.498 13.6621C115.752 13.6621 116.765 14.0611 117.538 14.8591C118.31 15.6444 118.697 16.7464 118.697 18.1651V24.3401H116.037V18.5261C116.037 17.6901 115.828 17.0504 115.41 16.6071C114.992 16.1511 114.422 15.9231 113.7 15.9231C112.965 15.9231 112.382 16.1511 111.952 16.6071C111.534 17.0504 111.325 17.6901 111.325 18.5261V24.3401H108.665V13.8141H111.325V15.1251C111.679 14.6691 112.129 14.3144 112.674 14.0611C113.231 13.7951 113.839 13.6621 114.498 13.6621Z" fill="#212121"/>
<path d="M106.723 18.8491C106.723 19.2291 106.698 19.5711 106.647 19.8751H98.9519C99.0152 20.6351 99.2812 21.2304 99.7499 21.6611C100.219 22.0917 100.795 22.3071 101.479 22.3071C102.467 22.3071 103.17 21.8827 103.588 21.0341H106.457C106.153 22.0474 105.57 22.8834 104.709 23.5421C103.848 24.1881 102.79 24.5111 101.536 24.5111C100.523 24.5111 99.6106 24.2894 98.7999 23.8461C98.0019 23.3901 97.3749 22.7504 96.9189 21.9271C96.4756 21.1037 96.2539 20.1537 96.2539 19.0771C96.2539 17.9877 96.4756 17.0314 96.9189 16.2081C97.3622 15.3847 97.9829 14.7514 98.7809 14.3081C99.5789 13.8647 100.497 13.6431 101.536 13.6431C102.537 13.6431 103.43 13.8584 104.215 14.2891C105.013 14.7197 105.627 15.3341 106.058 16.1321C106.501 16.9174 106.723 17.8231 106.723 18.8491ZM103.968 18.0891C103.955 17.4051 103.708 16.8604 103.227 16.4551C102.746 16.0371 102.157 15.8281 101.46 15.8281C100.801 15.8281 100.244 16.0307 99.7879 16.4361C99.3446 16.8287 99.0722 17.3797 98.9709 18.0891H103.968Z" fill="#212121"/>
<path d="M90.8773 22.2311H95.2473V24.3401H88.2173V11.0781H90.8773V22.2311Z" fill="#212121"/>
<path d="M81.7483 18.8491C81.7483 19.2291 81.723 19.5711 81.6723 19.8751H73.9773C74.0406 20.6351 74.3066 21.2304 74.7753 21.6611C75.244 22.0917 75.8203 22.3071 76.5043 22.3071C77.4923 22.3071 78.1953 21.8827 78.6133 21.0341H81.4823C81.1783 22.0474 80.5956 22.8834 79.7343 23.5421C78.873 24.1881 77.8153 24.5111 76.5613 24.5111C75.548 24.5111 74.636 24.2894 73.8253 23.8461C73.0273 23.3901 72.4003 22.7504 71.9443 21.9271C71.501 21.1037 71.2793 20.1537 71.2793 19.0771C71.2793 17.9877 71.501 17.0314 71.9443 16.2081C72.3876 15.3847 73.0083 14.7514 73.8063 14.3081C74.6043 13.8647 75.5226 13.6431 76.5613 13.6431C77.562 13.6431 78.455 13.8584 79.2403 14.2891C80.0383 14.7197 80.6526 15.3341 81.0833 16.1321C81.5266 16.9174 81.7483 17.8231 81.7483 18.8491ZM78.9933 18.0891C78.9806 17.4051 78.7336 16.8604 78.2523 16.4551C77.771 16.0371 77.182 15.8281 76.4853 15.8281C75.8266 15.8281 75.2693 16.0307 74.8133 16.4361C74.37 16.8287 74.0976 17.3797 73.9963 18.0891H78.9933Z" fill="#212121"/>
<path d="M70.2395 15.9991H68.3965V24.3401H65.6985V15.9991H64.5015V13.8141H65.6985V13.2821C65.6985 11.9901 66.0658 11.0401 66.8005 10.4321C67.5351 9.82408 68.6435 9.53908 70.1255 9.57708V11.8191C69.4795 11.8064 69.0298 11.9141 68.7765 12.1421C68.5231 12.3701 68.3965 12.7817 68.3965 13.3771V13.8141H70.2395V15.9991Z" fill="#212121"/>
<path d="M61.4743 12.5601C61.0057 12.5601 60.613 12.4144 60.2963 12.1231C59.9923 11.8191 59.8403 11.4454 59.8403 11.0021C59.8403 10.5588 59.9923 10.1914 60.2963 9.90009C60.613 9.59609 61.0057 9.44409 61.4743 9.44409C61.943 9.44409 62.3293 9.59609 62.6333 9.90009C62.95 10.1914 63.1083 10.5588 63.1083 11.0021C63.1083 11.4454 62.95 11.8191 62.6333 12.1231C62.3293 12.4144 61.943 12.5601 61.4743 12.5601ZM62.7853 13.8141V24.3401H60.1253V13.8141H62.7853Z" fill="#212121"/>
<path d="M54.0648 22.2311H58.4348V24.3401H51.4048V11.0781H54.0648V22.2311Z" fill="#212121"/>
<path d="M49.4631 18.8491C49.4631 19.2291 49.4378 19.5711 49.3871 19.8751H41.6921C41.7555 20.6351 42.0215 21.2304 42.4901 21.6611C42.9588 22.0917 43.5351 22.3071 44.2191 22.3071C45.2071 22.3071 45.9101 21.8827 46.3281 21.0341H49.1971C48.8931 22.0474 48.3105 22.8834 47.4491 23.5421C46.5878 24.1881 45.5301 24.5111 44.2761 24.5111C43.2628 24.5111 42.3508 24.2894 41.5401 23.8461C40.7421 23.3901 40.1151 22.7504 39.6591 21.9271C39.2158 21.1037 38.9941 20.1537 38.9941 19.0771C38.9941 17.9877 39.2158 17.0314 39.6591 16.2081C40.1025 15.3847 40.7231 14.7514 41.5211 14.3081C42.3191 13.8647 43.2375 13.6431 44.2761 13.6431C45.2768 13.6431 46.1698 13.8584 46.9551 14.2891C47.7531 14.7197 48.3675 15.3341 48.7981 16.1321C49.2415 16.9174 49.4631 17.8231 49.4631 18.8491ZM46.7081 18.0891C46.6955 17.4051 46.4485 16.8604 45.9671 16.4551C45.4858 16.0371 44.8968 15.8281 44.2001 15.8281C43.5415 15.8281 42.9841 16.0307 42.5281 16.4361C42.0848 16.8287 41.8125 17.3797 41.7111 18.0891H46.7081Z" fill="#212121"/>
</svg>
