<svg width="167" height="48" viewBox="0 0 167 48" fill="none" xmlns="http://www.w3.org/2000/svg">
<g clip-path="url(#clip0_904_2931)">
<path fill-rule="evenodd" clip-rule="evenodd" d="M147.229 27.6898H147.203C146.072 27.6898 145.275 26.8144 145.275 25.6559C145.275 24.4717 146.098 23.6221 147.229 23.6221C148.386 23.6221 149.183 24.4459 149.183 25.6559C149.183 26.8144 148.412 27.6898 147.229 27.6898Z" fill="#BD1C2B"/>
<path fill-rule="evenodd" clip-rule="evenodd" d="M41.6997 27.4049V9.12598H44.888V16.592H44.9394C45.3251 15.9999 45.865 15.485 46.5078 15.1503C47.1249 14.7899 47.8706 14.5839 48.6676 14.5839C50.8017 14.5839 53.0386 15.9999 53.0386 20.0161V27.4049H49.8761V20.3765C49.8761 18.5486 49.2076 17.1842 47.4592 17.1842C46.225 17.1842 45.3508 18.008 45.0165 18.9606C44.9137 19.218 44.888 19.5527 44.888 19.9131V27.4049H41.6997ZM54.5042 14.8671H57.9753L60.238 21.5866C60.4951 22.3589 60.7522 23.3115 60.9322 24.0323H61.0093C61.215 23.3115 61.4464 22.3846 61.6778 21.5608L63.6319 14.8671H67.0259L63.8891 23.4144C62.1664 28.1 61.0093 30.1854 59.518 31.4726C58.2839 32.5797 56.9983 32.9916 56.2012 33.0946L55.4813 30.4171C56.0212 30.2884 56.6897 30.0052 57.3325 29.5418C57.9239 29.1556 58.6181 28.409 59.0552 27.5594C59.1838 27.3277 59.2609 27.1475 59.2609 26.993C59.2609 26.8643 59.2352 26.6841 59.0809 26.3751L54.5042 14.8671ZM68.8515 32.5024V19.0378C68.8515 17.3901 68.8 16.0514 68.7486 14.8671H71.5255L71.6798 16.798H71.7312C72.6568 15.382 74.1224 14.5839 76.0251 14.5839C78.9048 14.5839 81.296 17.0554 81.296 20.9687C81.296 25.4998 78.442 27.6881 75.588 27.6881C74.0195 27.6881 72.7082 27.0188 72.0654 26.0147H72.014V32.5024H68.8515ZM72.014 20.2221V22.1529C72.014 22.4619 72.0397 22.7451 72.1169 23.0283C72.4254 24.3155 73.5567 25.2423 74.8937 25.2423C76.8993 25.2423 78.082 23.5689 78.082 21.0974C78.082 18.8833 77.0021 17.0812 74.9709 17.0812C73.6596 17.0812 72.4511 18.0337 72.1426 19.424C72.0654 19.6814 72.014 19.9646 72.014 20.2221ZM89.5752 14.5839C93.3035 14.5839 95.7975 17.2099 95.7975 21.0202C95.7975 25.6285 92.5578 27.6881 89.3695 27.6881C85.8213 27.6881 83.0958 25.2423 83.0958 21.2261C83.0958 17.1069 85.7956 14.5839 89.5752 14.5839ZM89.4981 16.901C87.2612 16.901 86.3612 19.0635 86.3612 21.1489C86.3612 23.5689 87.544 25.3968 89.4724 25.3968C91.2722 25.3968 92.5321 23.6204 92.5321 21.0974C92.5321 19.1408 91.6579 16.901 89.4981 16.901ZM98.9344 12.5501L102.02 11.649V14.8671H105.028V17.2357H102.02V22.7708C102.02 24.2898 102.431 25.0879 103.64 25.0879C104.231 25.0879 104.514 25.0364 104.874 24.9334L104.925 27.3534C104.462 27.5337 103.64 27.6881 102.637 27.6881C101.48 27.6881 100.503 27.2762 99.9114 26.6326C99.2429 25.9117 98.9344 24.7789 98.9344 23.1313V17.2357H97.1345V14.8671H98.9344V12.5501ZM107.419 27.4049V9.12598H110.608V16.592H110.659C111.045 15.9999 111.585 15.485 112.227 15.1503C112.844 14.7899 113.59 14.5839 114.387 14.5839C116.521 14.5839 118.758 15.9999 118.758 20.0161V27.4049H115.596V20.3765C115.596 18.5486 114.927 17.1842 113.179 17.1842C111.945 17.1842 111.07 18.008 110.736 18.9606C110.633 19.218 110.608 19.5527 110.608 19.9131V27.4049H107.419ZM132.745 22.0242H124.363C124.441 24.2898 126.215 25.2681 128.22 25.2681C129.686 25.2681 130.74 25.0621 131.691 24.7017L132.154 26.89C131.074 27.3277 129.583 27.6881 127.783 27.6881C123.721 27.6881 121.329 25.1651 121.329 21.3291C121.329 17.8535 123.438 14.5839 127.449 14.5839C131.537 14.5839 132.848 17.9308 132.848 20.6855C132.848 21.2776 132.797 21.741 132.745 22.0242ZM124.363 19.8102H129.866C129.891 18.6516 129.377 16.7465 127.269 16.7465C125.315 16.7465 124.492 18.5229 124.363 19.8102ZM134.622 26.787L135.24 24.4957C135.959 24.9334 137.322 25.3968 138.454 25.3968C139.842 25.3968 140.459 24.8304 140.459 24.0066C140.459 23.157 139.945 22.7193 138.402 22.1787C135.959 21.3291 134.931 19.9904 134.957 18.5229C134.957 16.3088 136.782 14.5839 139.688 14.5839C141.076 14.5839 142.285 14.9443 143.005 15.3305L142.387 17.5703C141.847 17.2614 140.845 16.8495 139.739 16.8495C138.608 16.8495 137.991 17.3901 137.991 18.1625C137.991 18.9606 138.582 19.3467 140.176 19.9131C142.439 20.737 143.493 21.8955 143.519 23.7491C143.519 26.0147 141.745 27.6881 138.428 27.6881C136.911 27.6881 135.548 27.3019 134.622 26.787ZM154.626 27.4049H151.438V14.8671H154.626V27.4049ZM153.032 9.64088C154.112 9.64088 154.781 10.3875 154.806 11.3658C154.806 12.3184 154.112 13.065 153.006 13.065C151.952 13.065 151.258 12.3184 151.258 11.3658C151.258 10.3875 151.978 9.64088 153.032 9.64088ZM157.249 26.787L157.866 24.4957C158.586 24.9334 159.949 25.3968 161.08 25.3968C162.468 25.3968 163.086 24.8304 163.086 24.0066C163.086 23.157 162.571 22.7193 161.029 22.1787C158.586 21.3291 157.557 19.9904 157.583 18.5229C157.583 16.3088 159.409 14.5839 162.314 14.5839C163.703 14.5839 164.911 14.9443 165.631 15.3305L165.014 17.5703C164.474 17.2614 163.471 16.8495 162.366 16.8495C161.234 16.8495 160.617 17.3901 160.617 18.1625C160.617 18.9606 161.209 19.3467 162.803 19.9131C165.065 20.737 166.12 21.8955 166.145 23.7491C166.145 26.0147 164.371 27.6881 161.054 27.6881C159.537 27.6881 158.175 27.3019 157.249 26.787Z" fill="#1D1D1D"/>
<path fill-rule="evenodd" clip-rule="evenodd" d="M20.3785 34.52H29.7719C31.2643 34.52 32.4782 33.3068 32.4782 31.8103V4.70974C32.4782 3.21547 31.2665 2 29.7719 2H2.70626C1.21391 2 0 3.21319 0 4.70974V31.8103C0 33.3045 1.21163 34.52 2.70626 34.52H12.0997L16.2391 39.94L20.3785 34.52Z" fill="#BD1C2B"/>
<path fill-rule="evenodd" clip-rule="evenodd" d="M25.7114 29.0834C27.2062 29.0834 28.4179 27.8741 28.4179 26.3823C28.4179 24.8905 27.2062 23.6812 25.7114 23.6812C24.2166 23.6812 23.0049 24.8905 23.0049 26.3823C23.0049 27.8741 24.2166 29.0834 25.7114 29.0834Z" fill="white"/>
<path fill-rule="evenodd" clip-rule="evenodd" d="M9.48432 7.41846H5.41357V29.0985H9.48432V23.0049C9.48432 19.7609 10.8266 18.5972 12.1799 18.2585C13.5331 17.9197 14.912 18.6794 14.912 20.9732V29.0985H18.9827V19.7609C18.9827 15.5485 16.2396 14.1976 13.5331 14.1976C10.8412 14.1976 9.48432 16.9061 9.48432 16.9061V7.41846Z" fill="white"/>
</g>
<defs>
<clipPath id="clip0_904_2931">
<rect width="166.145" height="48" fill="white"/>
</clipPath>
</defs>
</svg>
