<svg width="109" height="48" viewBox="0 0 109 48" fill="none" xmlns="http://www.w3.org/2000/svg">
<g clip-path="url(#clip0_887_2653)">
<path d="M33.4313 6.50836C33.4006 6.09538 33.3187 5.6878 33.1876 5.295C33.1152 5.08648 33.0177 4.88755 32.8972 4.70258C32.7677 4.50313 32.6009 4.33058 32.4059 4.19442C32.3056 4.12461 32.1978 4.06634 32.0844 4.02071C32.0285 3.99818 31.9714 3.9787 31.9133 3.96238C31.855 3.94552 31.8018 3.93775 31.7461 3.92608C31.6346 3.90322 31.5215 3.88892 31.4078 3.8833C31.3507 3.8833 31.2937 3.8833 31.2366 3.8833C31.1789 3.88348 31.1212 3.88825 31.0642 3.89756L30.8944 3.92219C30.8387 3.93515 30.7842 3.95071 30.7298 3.96627L30.6468 3.9883L30.569 4.01941C30.5159 4.04016 30.4627 4.0583 30.4122 4.08164C30.3116 4.12789 30.2141 4.18072 30.1205 4.23979C30.0751 4.26831 30.0285 4.29683 29.9831 4.32794L29.8535 4.42516C29.5276 4.68574 29.2404 4.99127 29.0005 5.33259C28.7658 5.65725 28.5552 5.99866 28.3705 6.35409C28.1851 6.7041 28.0218 7.06189 27.8701 7.42356C27.7184 7.78524 27.5797 8.1508 27.454 8.51895C27.3282 8.88711 27.2077 9.25786 27.0988 9.6299C26.9899 10.0019 26.8862 10.3727 26.7877 10.7499C26.5958 11.5005 26.4312 12.2563 26.2821 13.0146C25.9891 14.5313 25.764 16.0584 25.6067 17.5958C25.5289 18.3645 25.4654 19.1333 25.4291 19.9072C25.411 20.2961 25.398 20.685 25.3967 21.0739C25.3954 21.4628 25.3967 21.8516 25.4369 22.2496C25.446 22.3494 25.4563 22.4493 25.4732 22.5504L25.4848 22.6268L25.4978 22.6981L25.5224 22.842C25.5574 23.0313 25.5937 23.2219 25.6313 23.4098L25.853 24.5389C25.9826 25.2013 26.0863 25.8651 26.1589 26.5314C26.0889 26.6299 26.0189 26.7297 25.945 26.8243C25.8323 26.9682 25.7156 27.1069 25.595 27.234C25.4821 27.355 25.357 27.464 25.2217 27.5594C25.1682 27.5973 25.1103 27.6286 25.0493 27.6527L25.0143 27.6644C25.0048 27.663 24.9952 27.663 24.9858 27.6644C24.9784 27.6637 24.9711 27.6637 24.9637 27.6644C24.9637 27.6644 24.9547 27.6644 24.9469 27.6644C24.9028 27.6566 24.8612 27.6388 24.825 27.6125C24.769 27.575 24.7173 27.5316 24.6708 27.4829C24.5603 27.3598 24.463 27.2256 24.3804 27.0823C24.2909 26.9319 24.2093 26.7712 24.1315 26.6053C23.8321 25.9198 23.588 25.2115 23.4017 24.4871C23.3589 24.3237 23.3213 24.1591 23.2798 23.9958C23.4423 23.3908 23.5892 22.7824 23.7206 22.1705C23.8826 21.4174 24.0265 20.6616 24.1574 19.9033C24.4167 18.3866 24.6267 16.8621 24.7874 15.3298C24.8652 14.5637 24.9287 13.7963 24.9715 13.0263C25.0143 12.2563 25.0363 11.4836 25.0221 10.7097C25.0188 9.92749 24.9494 9.14692 24.8146 8.37636C24.7775 8.18036 24.7299 7.9865 24.6721 7.79561C24.6136 7.59749 24.5359 7.40558 24.44 7.22263C24.3381 7.01801 24.1893 6.84035 24.0057 6.7041C23.9028 6.63054 23.7859 6.57891 23.6622 6.55243C23.5389 6.52914 23.4122 6.52914 23.2889 6.55243C23.1684 6.57363 23.0523 6.61481 22.9454 6.67429C22.8437 6.7313 22.75 6.80148 22.6666 6.88299C22.589 6.95953 22.5183 7.04282 22.4553 7.13189C22.3937 7.21778 22.3374 7.3074 22.2868 7.40023C22.1011 7.75897 21.9584 8.1384 21.8616 8.53062C21.6772 9.29113 21.5554 10.0655 21.4974 10.8459C21.4325 11.6237 21.4053 12.395 21.4001 13.1676C21.3949 13.9402 21.4131 14.7141 21.4494 15.4854C21.5207 17.028 21.6633 18.5668 21.8681 20.0977C21.9709 20.8634 22.0915 21.627 22.2298 22.3883C22.3698 23.1493 22.5318 23.9089 22.7289 24.6621L22.7716 24.8176C22.7094 25.0225 22.642 25.2273 22.5733 25.4282C22.5098 25.6071 22.4437 25.7847 22.3685 25.9571C22.2985 26.1265 22.2158 26.2903 22.1209 26.4471C22.0766 26.5212 22.024 26.5899 21.964 26.6519C21.9394 26.6779 21.9115 26.7006 21.8811 26.7193C21.8614 26.7319 21.8382 26.7378 21.815 26.7362C21.7872 26.7329 21.7605 26.7231 21.7372 26.7077C21.7045 26.6872 21.6741 26.6633 21.6464 26.6364C21.5847 26.5742 21.5287 26.5065 21.4792 26.4342C21.3744 26.2806 21.2804 26.1199 21.1979 25.9532C21.1136 25.786 21.0346 25.6136 20.9607 25.4347C20.7753 24.9991 20.6133 24.5532 20.4603 24.1034C20.5887 23.729 20.6803 23.343 20.7338 22.9509C20.838 22.1775 20.8912 21.398 20.8933 20.6175C20.9002 19.0735 20.8218 17.5303 20.6586 15.9949C20.5809 15.2274 20.4854 14.4626 20.3721 13.7004C20.2581 12.9381 20.1271 12.1785 19.969 11.4227C19.8151 10.6634 19.6186 9.91341 19.3805 9.17619C19.2593 8.80124 19.1062 8.43737 18.9229 8.08858C18.827 7.90379 18.7043 7.73428 18.5586 7.5856C18.4736 7.50009 18.3703 7.43494 18.2565 7.39504C18.1922 7.37385 18.1245 7.36506 18.0569 7.36912C17.9853 7.37337 17.9156 7.39423 17.8534 7.43004C17.7457 7.49581 17.6593 7.59123 17.6045 7.70486C17.5554 7.80026 17.5167 7.90065 17.4891 8.00431C17.4388 8.19859 17.405 8.39677 17.388 8.59673C17.3541 8.98465 17.3445 9.37432 17.3595 9.76343C17.3815 10.5412 17.4554 11.3073 17.5462 12.0722C17.6369 12.837 17.751 13.598 17.8767 14.3576C18.0025 15.1172 18.136 15.873 18.2915 16.6275C18.5914 18.1347 18.9341 19.6336 19.3195 21.1244C19.514 21.8685 19.724 22.6087 19.9495 23.345C19.9871 23.4656 20.026 23.5848 20.0636 23.7041C20.0403 23.7819 20.0144 23.8584 19.9858 23.9335C19.9311 24.0886 19.8519 24.2339 19.7512 24.3639C19.7127 24.4132 19.6647 24.4542 19.6099 24.4845C19.5674 24.5069 19.5189 24.5156 19.4712 24.5091C19.3268 24.4827 19.191 24.4213 19.0758 24.3302C18.9785 24.2584 18.8858 24.1805 18.7984 24.0969C18.8075 23.9672 18.8114 23.848 18.8088 23.7287C18.8029 23.5227 18.7856 23.3171 18.7569 23.113C18.7023 22.718 18.6257 22.3263 18.5275 21.9398C18.3369 21.175 18.0958 20.4348 17.8339 19.7023C17.5721 18.9699 17.2856 18.2518 16.9849 17.5388C16.3799 16.1137 15.7196 14.7167 15.0041 13.3478C14.6463 12.6633 14.2729 11.9853 13.8763 11.3177C13.6766 10.9833 13.4718 10.6527 13.254 10.326C13.1451 10.1627 13.0337 10.0007 12.9157 9.83991C12.7977 9.67916 12.6707 9.53657 12.5281 9.37971C12.4548 9.29671 12.3765 9.21835 12.2935 9.14508C12.2448 9.10175 12.1928 9.06231 12.1379 9.02711C12.1049 9.00498 12.0702 8.98548 12.0342 8.96878C11.9852 8.94518 11.9334 8.92818 11.8799 8.91822C11.7974 8.90276 11.7123 8.90811 11.6323 8.93378C11.5452 8.96288 11.4686 9.01698 11.412 9.08934C11.3729 9.13767 11.3426 9.19253 11.3225 9.25138C11.3065 9.29329 11.2948 9.33673 11.2875 9.38101C11.2683 9.50539 11.2648 9.63169 11.2771 9.75694C11.2963 9.96432 11.3301 10.1701 11.3783 10.3727C11.421 10.5684 11.4716 10.7616 11.5247 10.9496C11.7386 11.7053 11.9979 12.4351 12.2714 13.1533C12.8211 14.5987 13.4381 16.0143 14.0863 17.4104C14.7344 18.8066 15.4578 20.1846 16.246 21.5211C16.6382 22.1917 17.0662 22.8408 17.528 23.4656C17.6758 23.6613 17.8326 23.8545 17.996 24.0385C17.9917 24.1094 17.983 24.18 17.9701 24.2498C17.9557 24.3673 17.911 24.479 17.8404 24.5739C17.8288 24.587 17.8158 24.5987 17.8015 24.6089C17.7899 24.6168 17.7773 24.6229 17.7639 24.6271C17.7196 24.6415 17.6731 24.6476 17.6265 24.6452C17.557 24.6436 17.4879 24.6345 17.4204 24.618C17.2224 24.0628 16.9961 23.518 16.7424 22.9859C16.4106 22.2781 16.0463 21.5898 15.6652 20.9118C15.2841 20.2338 14.8874 19.5727 14.47 18.9181C13.6429 17.6088 12.7593 16.3379 11.819 15.1056C11.3497 14.4903 10.8645 13.8853 10.3632 13.2907C9.86156 12.6983 9.34043 12.124 8.78561 11.564C8.50949 11.2892 8.21782 11.0209 7.91707 10.7616C7.61415 10.4925 7.29226 10.2456 6.9539 10.0227C6.77204 9.90487 6.58084 9.80212 6.38222 9.71546C6.27373 9.66633 6.16145 9.62601 6.04648 9.5949C5.91543 9.55991 5.78024 9.5429 5.64462 9.54435C5.48257 9.54499 5.3227 9.58174 5.17664 9.65194C5.02559 9.72515 4.89507 9.83473 4.79682 9.97084C4.70782 10.0931 4.64192 10.2306 4.60237 10.3766C4.56781 10.5034 4.54908 10.634 4.54663 10.7655C4.54229 10.998 4.56711 11.2301 4.62052 11.4564C4.66968 11.6606 4.7316 11.8615 4.8059 12.0579C4.94917 12.4348 5.11674 12.802 5.30757 13.1572C5.6788 13.8511 6.08999 14.5229 6.53908 15.1691C7.4266 16.4426 8.38389 17.666 9.40655 18.8338C10.4242 20.0005 11.4884 21.1257 12.6175 22.1926C13.1827 22.7241 13.7635 23.2413 14.3741 23.7313C14.6787 23.9763 14.9911 24.2136 15.3165 24.4404C15.6448 24.6723 15.9877 24.8828 16.3432 25.0704C16.4547 25.1288 16.5713 25.1819 16.6906 25.2338C16.7126 25.3038 16.7373 25.3738 16.758 25.4438C16.862 25.7778 16.9273 26.1228 16.9524 26.4717C16.9628 26.6179 16.9506 26.7649 16.9162 26.9073C16.9032 26.9589 16.8827 27.0083 16.8552 27.0538C16.8318 27.0904 16.8019 27.1225 16.7671 27.1484C16.668 27.2146 16.5539 27.2548 16.4352 27.2651C16.278 27.2831 16.1193 27.2831 15.9621 27.2651C15.6094 27.2218 15.2619 27.1432 14.925 27.0305C14.4126 26.8623 13.9113 26.6623 13.4239 26.4316C13.2839 26.2527 13.1451 26.0725 13.0038 25.8949C12.048 24.6902 11.0762 23.4975 10.0884 22.317C9.09802 21.1387 8.0843 19.9836 7.0252 18.8545C6.4963 18.2932 5.95444 17.7397 5.38924 17.2069C4.82585 16.6564 4.22226 16.1485 3.58346 15.6876C3.41617 15.5714 3.24311 15.4636 3.06493 15.3648C2.87704 15.2589 2.67901 15.172 2.47381 15.1056C2.35856 15.0694 2.24002 15.0446 2.11991 15.0317C1.97988 15.0172 1.83839 15.0286 1.7025 15.0654C1.55072 15.108 1.41239 15.1888 1.30064 15.3C1.20045 15.4018 1.12079 15.522 1.066 15.6539C0.970734 15.8883 0.934671 16.1425 0.960999 16.3941C0.983495 16.6158 1.03447 16.8336 1.11267 17.0423C1.26006 17.4281 1.45146 17.7957 1.68305 18.1377C1.90275 18.4688 2.14033 18.7878 2.39473 19.0931C2.64622 19.3977 2.91326 19.6894 3.17253 19.9746C3.7105 20.5424 4.2744 21.0777 4.85775 21.595C6.01893 22.6245 7.23817 23.5867 8.50949 24.4767C9.14296 24.9209 9.79112 25.3478 10.454 25.7575C11.1151 26.1645 11.7905 26.5521 12.4879 26.906C12.8185 27.0732 13.1542 27.2353 13.4977 27.3857C14.1485 28.198 14.7967 29.0138 15.4422 29.8331L16.1513 30.7405C16.2706 30.8922 16.3847 31.0426 16.5091 31.1956C16.5726 31.272 16.6387 31.3498 16.6997 31.425L16.898 31.6441C17.4402 32.1999 18.0127 32.7253 18.613 33.2178C19.7797 34.203 20.9698 35.1545 22.0107 36.2486C21.9018 36.3147 21.7916 36.3783 21.6775 36.4379C21.3412 36.6183 20.9949 36.7797 20.6405 36.9214C20.4629 36.9888 20.2866 37.0614 20.1064 37.121C20.0157 37.1522 19.9275 37.1846 19.8355 37.2131L19.5632 37.2973C18.8301 37.5134 18.0817 37.6741 17.3245 37.7783C16.9447 37.8288 16.5648 37.869 16.1824 37.8937C15.8 37.9183 15.4176 37.9338 15.0378 37.9248C15.0323 37.9248 15.0269 37.9258 15.0219 37.9279C15.0169 37.93 15.0123 37.9331 15.0084 37.9369C15.0046 37.9408 15.0015 37.9453 14.9995 37.9504C14.9974 37.9554 14.9963 37.9608 14.9963 37.9662C14.9963 37.9717 14.9974 37.9771 14.9995 37.9821C15.0015 37.9872 15.0046 37.9917 15.0084 37.9956C15.0123 37.9994 15.0169 38.0025 15.0219 38.0046C15.0269 38.0067 15.0323 38.0077 15.0378 38.0077C16.5826 38.0646 18.1272 37.8898 19.6203 37.4892L19.899 37.4088C19.9923 37.3829 20.0831 37.3505 20.1764 37.322C20.3618 37.2649 20.542 37.1923 20.7247 37.1301C21.0874 36.9919 21.4423 36.8339 21.7877 36.657C21.9174 36.5921 22.0561 36.517 22.187 36.4418L22.2233 36.4781L22.41 36.692L22.5046 36.7983L22.5953 36.9072L22.7755 37.1262L22.9466 37.3518L23.0322 37.4646L23.1126 37.5812L23.2733 37.8133L23.4224 38.0544C23.4457 38.0933 23.4717 38.1335 23.495 38.1737L23.5637 38.3033C23.6078 38.385 23.6544 38.4666 23.6933 38.5509C23.7711 38.7207 23.858 38.8879 23.9215 39.0694L23.972 39.1991L23.998 39.2639L24.0187 39.3313L24.103 39.5983C24.1172 39.643 24.1289 39.6884 24.138 39.7344L24.1691 39.8705L24.2015 40.0002C24.2119 40.0456 24.2157 40.0922 24.2235 40.1389L24.265 40.415L24.2832 40.695C24.2832 40.7417 24.2832 40.7883 24.2909 40.835V40.975C24.2909 41.0684 24.2909 41.1617 24.2845 41.255C24.2663 41.4443 24.2572 41.6336 24.2274 41.8202C24.2145 41.9136 24.2054 42.0082 24.1885 42.1015L24.138 42.3802C24.0638 42.7522 23.9655 43.119 23.8437 43.4782C23.7195 43.8369 23.5722 44.1872 23.403 44.5269C23.0605 45.2055 22.6342 45.8383 22.1339 46.4105C21.8829 46.6977 21.615 46.9696 21.3314 47.2246C21.1888 47.3542 21.0436 47.4748 20.8933 47.5928C20.7429 47.7107 20.5873 47.8235 20.4292 47.9233C20.4199 47.9292 20.4134 47.9385 20.4109 47.9492C20.4085 47.9598 20.4104 47.9711 20.4162 47.9804C20.4221 47.9896 20.4313 47.9962 20.4419 47.9988C20.4525 48.0015 20.4637 48 20.4733 47.9946C20.6418 47.8935 20.7986 47.7833 20.9542 47.6679C21.1098 47.5526 21.2588 47.432 21.4066 47.3063C21.6996 47.0545 21.9771 46.7853 22.2376 46.5C23.0287 45.6424 23.6428 44.6371 24.0446 43.5417C24.1772 43.1759 24.2854 42.8018 24.3687 42.4217L24.427 42.1352C24.4452 42.0406 24.4569 41.9434 24.4737 41.8474C24.5074 41.6556 24.5204 41.4585 24.5424 41.268C24.5489 41.1708 24.5515 41.0709 24.5554 40.9737L24.5619 40.8259C24.5619 40.7767 24.5619 40.7274 24.5554 40.6782L24.5411 40.3826L24.5035 40.0896C24.4958 40.0404 24.4919 39.9911 24.4815 39.9431L24.4543 39.7993L24.4232 39.6554C24.4141 39.6068 24.4024 39.5588 24.3882 39.5115L24.3052 39.2276L24.2845 39.1576L24.2585 39.0889L24.2067 38.9502C24.1432 38.7635 24.0563 38.5872 23.9772 38.407C23.9344 38.3189 23.8865 38.2333 23.8476 38.1477L23.7789 38.0181L23.705 37.8885L23.5468 37.6383L23.3848 37.3946L23.3031 37.2727L23.2163 37.1548L23.0439 36.9188L22.8598 36.6881L22.7691 36.574L22.6744 36.4638L22.4955 36.2538C22.5124 36.2421 22.5305 36.2318 22.5487 36.2214C22.629 36.167 22.7146 36.119 22.7924 36.062C22.9505 35.9466 23.1139 35.839 23.2629 35.7132C23.3394 35.651 23.4159 35.5914 23.4911 35.5279L23.7089 35.3308L23.8165 35.2323C23.8528 35.1986 23.8852 35.1623 23.9202 35.1286L24.125 34.9173C24.1937 34.8473 24.2546 34.7695 24.3182 34.6956L24.4141 34.5841C24.4452 34.5465 24.4776 34.5103 24.5061 34.4701C24.7443 34.1604 24.9642 33.837 25.1647 33.5017C25.3661 33.166 25.5495 32.8198 25.7143 32.4647C25.7921 32.2845 25.8763 32.1082 25.9437 31.9254C25.9787 31.8333 26.0163 31.7439 26.0487 31.6519L26.1447 31.3744C26.2675 31.0028 26.3693 30.6246 26.4493 30.2415C26.529 29.8587 26.5874 29.4718 26.6243 29.0825C26.6859 28.4228 26.6963 27.7592 26.6554 27.0979C26.8525 26.8386 27.0443 26.569 27.2116 26.2967C27.6329 25.6343 28.0075 24.9525 28.3627 24.2628C29.0705 22.8822 29.6901 21.4653 30.2644 20.0316C30.8387 18.5979 31.3546 17.1408 31.82 15.6669C32.2897 14.1914 32.6843 12.6931 33.0022 11.1777C33.1565 10.4168 33.2874 9.64935 33.373 8.87155C33.4687 8.08756 33.4883 7.29612 33.4313 6.50836ZM22.5098 20.0083C22.2894 18.4985 22.133 16.9805 22.0405 15.4543C21.9951 14.692 21.9666 13.9298 21.9601 13.1676C21.9537 12.4053 21.9692 11.6444 22.0237 10.8873C22.0674 10.1349 22.1736 9.38733 22.3413 8.65248C22.4223 8.29748 22.545 7.9533 22.7068 7.62708C22.8689 7.31856 23.0957 7.05022 23.3705 7.00615C23.4356 6.99196 23.5028 6.99119 23.5681 7.0039C23.6334 7.0166 23.6954 7.04251 23.7504 7.08004C23.8761 7.17482 23.9789 7.29665 24.0511 7.43652C24.1347 7.59301 24.2033 7.75708 24.2559 7.92654C24.3117 8.10024 24.357 8.28043 24.3959 8.46192C24.5349 9.20522 24.6112 9.95886 24.6241 10.7149C24.6461 11.4746 24.6332 12.2394 24.6008 13.0029C24.5683 13.7665 24.5165 14.53 24.4543 15.2987C24.3169 16.8232 24.1185 18.3438 23.8709 19.8553C23.7413 20.6111 23.6117 21.3642 23.4522 22.1135C23.3602 22.5568 23.2578 22.9989 23.1515 23.4396C22.8844 22.3054 22.6796 21.1581 22.5098 20.0083ZM19.5594 21.0764C19.173 19.5935 18.8343 18.0988 18.543 16.5925C18.2501 15.0874 17.9986 13.5746 17.8236 12.0553C17.738 11.2957 17.6706 10.5334 17.6525 9.7738C17.6409 9.39623 17.6522 9.01831 17.6862 8.64211C17.7029 8.45997 17.735 8.27957 17.7821 8.10284C17.8034 8.02063 17.8339 7.94106 17.8728 7.86561C17.9016 7.805 17.9464 7.75343 18.0025 7.71653C18.026 7.70459 18.0517 7.69762 18.078 7.69606C18.1043 7.6945 18.1307 7.69838 18.1554 7.70746C18.2231 7.73416 18.2842 7.7753 18.3343 7.82801C18.4544 7.95632 18.5561 8.10074 18.6364 8.2571C18.8062 8.59028 18.9475 8.9372 19.059 9.29416C19.2869 10.0205 19.473 10.7593 19.6164 11.507C19.9077 13.0072 20.1201 14.5217 20.2529 16.0441C20.398 17.5654 20.459 19.0935 20.4357 20.6214C20.4246 21.3787 20.3635 22.1343 20.2529 22.8835C20.2321 23.0132 20.2088 23.1324 20.1829 23.2556C19.9547 22.5348 19.7512 21.8063 19.5606 21.0764H19.5594ZM16.7386 21.2294C15.9802 19.9098 15.2996 18.5395 14.6644 17.1512C14.0292 15.7628 13.4329 14.3537 12.904 12.9239C12.6396 12.2096 12.3985 11.4888 12.1949 10.7616C12.1457 10.5814 12.1003 10.4012 12.0653 10.2223C12.0381 10.0927 12.0173 9.97213 12.0018 9.85158C12.1203 9.98716 12.232 10.1286 12.3362 10.2755C12.4451 10.4246 12.5501 10.5801 12.6538 10.737C12.86 11.0507 13.057 11.3735 13.2488 11.7001C13.6377 12.3483 13.9955 13.025 14.3442 13.703C15.0417 15.0589 15.6885 16.4434 16.2745 17.8512C16.5674 18.5538 16.8449 19.2629 17.0976 19.9785C17.3504 20.694 17.5799 21.4161 17.7562 22.1433C17.8339 22.4648 17.8988 22.7915 17.9441 23.1091C17.5106 22.5037 17.1087 21.8763 16.7399 21.2294H16.7386ZM15.7858 23.7611C15.4824 23.5472 15.1843 23.3191 14.8926 23.0819C14.3079 22.6074 13.7427 22.1005 13.1931 21.5781C12.0938 20.5307 11.049 19.4184 10.0534 18.2673C9.05684 17.1203 8.12465 15.9189 7.26113 14.6687C6.83535 14.0515 6.4458 13.41 6.09444 12.7476C5.92352 12.4256 5.77327 12.0931 5.64462 11.752C5.58416 11.5897 5.53351 11.4239 5.49295 11.2555C5.4555 11.1054 5.43678 10.9513 5.4372 10.7966C5.43308 10.6953 5.45926 10.5951 5.51239 10.5088C5.52604 10.4875 5.54534 10.4705 5.56813 10.4596C5.59605 10.4479 5.62606 10.4422 5.65628 10.4427C5.78629 10.4505 5.91354 10.4835 6.03092 10.5399C6.18395 10.6076 6.33134 10.6873 6.47167 10.7784C6.77405 10.9776 7.0621 11.1976 7.33373 11.437C7.61244 11.6794 7.88466 11.9374 8.14911 12.2031C8.67931 12.7359 9.18617 13.2985 9.67618 13.8767C10.1662 14.4548 10.6419 15.0434 11.1021 15.6539C12.0243 16.8638 12.8945 18.1126 13.7129 19.4003C14.1208 20.0424 14.5132 20.6932 14.89 21.3526C15.2646 22.0124 15.6211 22.6826 15.9426 23.3632C16.0541 23.5991 16.1591 23.8363 16.2602 24.0748C16.0995 23.9763 15.9426 23.87 15.7871 23.7611H15.7858ZM8.97228 23.8104C7.72044 22.948 6.51855 22.0153 5.37239 21.0168C4.80201 20.5177 4.24848 19.9992 3.72735 19.4547C3.20343 18.923 2.72634 18.347 2.3014 17.7332C2.09902 17.4409 1.9307 17.1265 1.79972 16.796C1.7414 16.6469 1.70262 16.4909 1.68435 16.3319C1.66725 16.2006 1.68238 16.0671 1.72842 15.943C1.74616 15.8954 1.77253 15.8514 1.8062 15.8134C1.83072 15.788 1.86161 15.7696 1.89565 15.7602C2.01724 15.7379 2.14259 15.7487 2.25862 15.7913C2.41865 15.8425 2.57324 15.9094 2.72011 15.991C2.87869 16.0767 3.03272 16.1706 3.1816 16.2723C3.79554 16.7039 4.37659 17.1806 4.91997 17.6982C5.47739 18.2168 6.01666 18.7521 6.54556 19.3018C7.60206 20.4024 8.61968 21.5483 9.62044 22.7059C10.5019 23.7274 11.3683 24.7645 12.2196 25.8171C11.1027 25.2063 10.0192 24.5364 8.97358 23.8104H8.97228ZM26.2134 29.0514C26.1837 29.4269 26.133 29.8004 26.0617 30.1702C25.992 30.5403 25.9006 30.9061 25.7882 31.2656L25.7013 31.5352C25.6715 31.6246 25.6365 31.7115 25.6041 31.7945C25.5419 31.9733 25.4641 32.1445 25.3915 32.3195C25.2372 32.6644 25.064 33.0007 24.873 33.3267C24.6863 33.6549 24.4798 33.9713 24.2546 34.2743C24.228 34.3125 24.1994 34.3492 24.1691 34.3845L24.0783 34.4934C24.0187 34.5647 23.9617 34.6412 23.8969 34.7086L23.705 34.9147L23.6078 35.0171L23.5041 35.1143L23.2992 35.3075L23.0828 35.489C22.9402 35.6186 22.7859 35.721 22.6355 35.8351C22.5603 35.8921 22.4787 35.9414 22.4009 35.9945L22.314 36.0516L22.2868 36.0218C21.2381 34.8745 20.0403 33.8919 18.8853 32.8873C18.3062 32.3971 17.7545 31.8756 17.2325 31.3252L17.0471 31.1152C16.9874 31.0439 16.9317 30.97 16.8734 30.8987C16.7567 30.7522 16.6413 30.5941 16.526 30.4424L15.8298 29.5246C15.383 28.9361 14.9323 28.3497 14.4778 27.7655C14.54 27.7862 14.5996 27.8108 14.6618 27.8303C15.0534 27.9625 15.4573 28.055 15.8674 28.1064C15.9767 28.1193 16.0866 28.1262 16.1967 28.1272C16.3124 28.13 16.4281 28.1239 16.5428 28.109C16.6682 28.0945 16.7917 28.0662 16.911 28.0247C17.0434 27.9799 17.168 27.9147 17.2804 27.8316C17.4003 27.7437 17.5027 27.6342 17.5825 27.5088C17.6563 27.3914 17.7126 27.2639 17.7497 27.1303C17.8093 26.8998 17.833 26.6615 17.8197 26.4238C17.8008 26.0945 17.7491 25.768 17.6654 25.4489C17.7927 25.447 17.9188 25.4242 18.0388 25.3815C18.1157 25.3531 18.1889 25.3152 18.2565 25.2688C18.3204 25.2235 18.3791 25.1713 18.4316 25.1132C18.5262 25.0065 18.6017 24.8841 18.6545 24.7515C18.6623 24.7321 18.6675 24.7139 18.674 24.6945C18.7077 24.7191 18.7362 24.745 18.7712 24.7697C18.8626 24.8339 18.9598 24.8895 19.0616 24.9356C19.1759 24.9892 19.2988 25.0221 19.4245 25.0328C19.5693 25.0452 19.7146 25.016 19.8432 24.9486C19.9564 24.8853 20.056 24.8003 20.1362 24.6984C20.1991 24.6201 20.2542 24.5358 20.3009 24.4469C20.4305 24.8137 20.5666 25.178 20.7183 25.5371C20.7947 25.716 20.8751 25.8923 20.9633 26.0673C21.0501 26.2473 21.1502 26.4206 21.2627 26.5858C21.3211 26.6723 21.3879 26.7526 21.4624 26.8256C21.5015 26.8658 21.5449 26.9015 21.592 26.9319C21.6496 26.9683 21.7148 26.991 21.7825 26.9981C21.8558 27.0038 21.9291 26.9871 21.9926 26.9501C22.0453 26.9212 22.0934 26.8844 22.1351 26.8412C22.2094 26.7656 22.2747 26.6816 22.3296 26.591C22.4341 26.4217 22.5251 26.2444 22.6018 26.0608C22.6809 25.8819 22.7496 25.7004 22.8157 25.5177C22.8429 25.4399 22.8676 25.3608 22.8948 25.2817C23.0504 25.8335 23.2435 26.3741 23.473 26.8995C23.557 27.0861 23.6504 27.2682 23.753 27.4453C23.8634 27.6349 23.9938 27.8122 24.1419 27.9742C24.2261 28.0658 24.3204 28.1476 24.4232 28.2179C24.5452 28.3009 24.6835 28.357 24.8289 28.3825C24.8717 28.3901 24.9151 28.394 24.9585 28.3942C24.9993 28.3946 25.04 28.3925 25.0804 28.3877C25.1193 28.3877 25.1556 28.3747 25.1932 28.367L25.2956 28.3372C25.4143 28.2932 25.5275 28.2353 25.6326 28.1647C25.8115 28.0419 25.977 27.9007 26.1265 27.7434C26.1667 27.7033 26.203 27.6605 26.2406 27.6138C26.2603 28.0931 26.2508 28.5732 26.2121 29.0514H26.2134ZM32.6522 8.79766C32.5667 9.54564 32.437 10.2936 32.2828 11.0364C31.9704 12.5233 31.5659 13.9946 31.107 15.4439C30.6481 16.8932 30.1283 18.3347 29.5631 19.7529C28.9979 21.1711 28.3808 22.5672 27.6938 23.9219C27.349 24.5986 26.9847 25.2649 26.5828 25.8988C26.5738 25.9143 26.5634 25.9299 26.553 25.9454C26.4921 25.4412 26.4143 24.9395 26.3262 24.443L26.1213 23.3074C26.0863 23.1195 26.0539 22.9315 26.0215 22.7435L25.9982 22.6035L25.9865 22.5335L25.9775 22.4661C25.9645 22.3793 25.9567 22.2872 25.9489 22.1952C25.9217 21.827 25.9191 21.4485 25.9256 21.07C25.9321 20.6914 25.9489 20.3103 25.971 19.9305C26.0163 19.1708 26.0876 18.4099 26.1732 17.6516C26.3469 16.1349 26.5815 14.6233 26.8862 13.1287C27.1808 11.6366 27.5763 10.1663 28.0697 8.72766C28.1959 8.37161 28.3324 8.0203 28.4794 7.67375C28.6284 7.32893 28.7866 6.98929 28.9629 6.66262C29.1349 6.33776 29.3303 6.02582 29.5475 5.72927C29.7526 5.44207 29.997 5.18506 30.2735 4.96573L30.3746 4.89054L30.4809 4.82443C30.5504 4.78152 30.6222 4.74257 30.6961 4.70776C30.7324 4.69221 30.77 4.68054 30.8063 4.66498L30.862 4.64424L30.919 4.62869L31.0318 4.59887L31.1472 4.58332C31.1854 4.57746 31.224 4.57486 31.2626 4.57554C31.301 4.57295 31.3395 4.57295 31.3779 4.57554C31.4561 4.57889 31.5337 4.5893 31.61 4.60665C31.6485 4.61259 31.6865 4.62082 31.7241 4.63128C31.758 4.6408 31.7914 4.65249 31.8239 4.66628C31.8895 4.69177 31.9518 4.7253 32.0092 4.7661C32.2547 4.95943 32.4337 5.22454 32.5213 5.52445C32.6296 5.86083 32.6971 6.20901 32.7222 6.56151C32.7711 7.3074 32.7477 8.05628 32.6522 8.79766Z" fill="#2FAC66"/>
<path d="M1.93577 9.74348C1.981 9.71862 2.02433 9.69046 2.06541 9.65922C2.10258 9.62596 2.13724 9.58999 2.16911 9.55162C2.20015 9.51094 2.22748 9.46755 2.25078 9.42199C2.27292 9.38004 2.29241 9.33675 2.30912 9.29236C2.32338 9.24439 2.33375 9.19643 2.34282 9.14976C2.35189 9.10309 2.35449 9.05643 2.35838 9.01106C2.36042 8.9245 2.35696 8.83791 2.34801 8.75179C2.33068 8.61637 2.32202 8.47998 2.32208 8.34345C2.32208 8.21382 2.34282 8.08418 2.35967 7.92992C2.38356 7.74688 2.37078 7.56092 2.32208 7.38287C2.26399 7.18193 2.13741 7.00766 1.96429 6.89027C1.92008 6.86128 1.8737 6.83571 1.82559 6.81379C1.77633 6.79305 1.72707 6.7723 1.67651 6.75545C1.62595 6.7386 1.5728 6.72823 1.52095 6.71786C1.4691 6.70749 1.41465 6.7036 1.3615 6.69971C1.14289 6.68902 0.925395 6.7369 0.731489 6.83842C0.544648 6.93649 0.381757 7.07459 0.254442 7.24287C0.224627 7.28435 0.194811 7.32583 0.167589 7.3725C0.140366 7.41917 0.117032 7.45936 0.0949944 7.50213C0.0741709 7.54772 0.0559923 7.59446 0.0405488 7.64214C0.0279347 7.6874 0.0175516 7.73326 0.00943705 7.77955C-0.0157627 7.97074 0.00971825 8.1652 0.0833275 8.34345C0.146541 8.49525 0.225624 8.63995 0.319258 8.77512C0.400927 8.90476 0.485188 9.01235 0.569449 9.13291C0.660794 9.26919 0.761273 9.39912 0.870196 9.52181C1.00169 9.6657 1.17178 9.76875 1.36021 9.81867C1.55482 9.86456 1.75949 9.83783 1.93577 9.74348Z" fill="#2FAC66"/>
<path d="M13.2383 4.01132C13.2511 4.04963 13.2658 4.08727 13.2824 4.1241C13.3005 4.15964 13.3204 4.19426 13.342 4.2278C13.4286 4.35393 13.5465 4.45534 13.6842 4.52207C13.8039 4.57796 13.929 4.62139 14.0576 4.6517C14.1755 4.68281 14.2857 4.70355 14.4011 4.72948C14.5289 4.76225 14.6589 4.78608 14.79 4.80078C14.946 4.8154 15.1029 4.78527 15.2424 4.71392C15.3844 4.63521 15.4924 4.5069 15.5457 4.35355C15.5577 4.31485 15.5672 4.27546 15.5743 4.23558C15.5768 4.19544 15.5768 4.15517 15.5743 4.11502C15.5709 4.07524 15.5644 4.0358 15.5548 3.99706C15.5452 3.9584 15.5322 3.92066 15.5159 3.88428C15.4992 3.84918 15.4806 3.81499 15.4602 3.78187C15.4381 3.74946 15.4161 3.71835 15.3941 3.68983C15.3493 3.63792 15.3013 3.58899 15.2502 3.54334C15.1666 3.47208 15.0878 3.39544 15.0142 3.31389C14.9481 3.23741 14.8846 3.15185 14.812 3.04685C14.7274 2.9245 14.6195 2.82009 14.4944 2.73962C14.3507 2.65228 14.1814 2.61703 14.0148 2.63981C13.971 2.64692 13.9277 2.65688 13.8851 2.66962C13.8463 2.68388 13.8048 2.69814 13.7659 2.71629C13.727 2.73444 13.6894 2.75518 13.6518 2.77722C13.6142 2.79925 13.5818 2.82648 13.5468 2.8524C13.4128 2.96403 13.3105 3.10885 13.25 3.27241C13.1915 3.43187 13.1693 3.60238 13.1851 3.7715C13.1851 3.81168 13.1942 3.85316 13.2007 3.89335C13.2072 3.93354 13.2279 3.97243 13.2383 4.01132Z" fill="#2FAC66"/>
<path d="M5.86768 4.48211L5.88323 4.52359C5.88995 4.53717 5.89775 4.55017 5.90657 4.56248C5.93921 4.61041 5.98393 4.64887 6.0362 4.67397C6.08114 4.69493 6.12803 4.71143 6.1762 4.72323L6.30584 4.75175C6.35451 4.76374 6.40386 4.77283 6.45362 4.77897C6.51188 4.78444 6.57046 4.77272 6.62214 4.74527C6.6565 4.72802 6.68622 4.70277 6.70878 4.67164C6.73134 4.6405 6.74609 4.6044 6.75177 4.56637C6.7531 4.55128 6.7531 4.5361 6.75177 4.521C6.75045 4.50611 6.74785 4.49137 6.74399 4.47693C6.74002 4.46284 6.73526 4.44899 6.72973 4.43544C6.72973 4.42118 6.71547 4.40822 6.70899 4.39655L6.68436 4.36155C6.66621 4.34081 6.64677 4.32266 6.62992 4.30581C6.598 4.27958 6.5681 4.25098 6.54047 4.22025C6.51584 4.19174 6.4938 4.15933 6.46528 4.12044C6.43352 4.0745 6.39299 4.03529 6.34602 4.00506C6.29195 3.97249 6.22842 3.95923 6.16583 3.96747L6.11916 3.97784L6.07379 3.99599L6.03101 4.01932L5.99213 4.04655C5.94223 4.08903 5.90388 4.14343 5.88064 4.2047C5.85916 4.26444 5.85076 4.3281 5.85601 4.39137C5.85601 4.40692 5.85601 4.42248 5.85601 4.43804C5.85601 4.45359 5.86379 4.46785 5.86768 4.48211Z" fill="#2FAC66"/>
<path d="M20.1507 0.520515L20.1663 0.563293C20.174 0.576257 20.1805 0.58922 20.1896 0.602183C20.2223 0.649759 20.267 0.687789 20.3192 0.712371C20.3639 0.733904 20.4109 0.750424 20.4592 0.761631C20.5033 0.773298 20.5448 0.781076 20.5889 0.79015C20.6375 0.802144 20.6869 0.811235 20.7366 0.817373C20.7948 0.820471 20.8526 0.807463 20.9039 0.77978C20.9559 0.7516 20.9959 0.705556 21.0166 0.650147C21.0213 0.635669 21.0252 0.620957 21.0283 0.606072C21.0283 0.591813 21.0283 0.576257 21.0283 0.561997C21.0271 0.546673 21.0245 0.531489 21.0205 0.516626C21.0166 0.502541 21.0118 0.488692 21.0063 0.475143C21.0063 0.460884 20.992 0.447921 20.9855 0.436254L20.9609 0.402549C20.9441 0.38273 20.9259 0.364104 20.9065 0.346807C20.8775 0.319981 20.8502 0.291409 20.8248 0.26125C20.8002 0.232731 20.7781 0.200323 20.7496 0.161433C20.7175 0.115792 20.677 0.0766447 20.6303 0.0460601C20.5753 0.00974625 20.5091 -0.00587081 20.4437 0.00198512C20.4278 0.00464842 20.4122 0.00854935 20.397 0.013652L20.3516 0.0305042C20.3374 0.0375064 20.3235 0.0452964 20.3101 0.0538381L20.27 0.0823572C20.2199 0.124165 20.1815 0.178197 20.1585 0.239212C20.137 0.298955 20.1286 0.362614 20.1338 0.425883C20.1338 0.441439 20.1338 0.456995 20.1403 0.472551C20.1468 0.488107 20.1468 0.504959 20.1507 0.520515Z" fill="#2FAC66"/>
<path d="M25.5274 3.83513C25.5675 3.86495 25.6077 3.89606 25.6505 3.92198C25.6933 3.94791 25.7387 3.97124 25.7801 3.99199C25.8216 4.01273 25.8735 4.02958 25.9227 4.04513C26.1187 4.10385 26.3266 4.10966 26.5255 4.06199C26.7186 4.01501 26.899 3.92653 27.0544 3.80272C27.092 3.77161 27.1283 3.7392 27.1633 3.70679C27.1983 3.67439 27.2294 3.63809 27.2605 3.60309C27.2916 3.56809 27.3176 3.5266 27.3422 3.48772C27.3654 3.44573 27.3862 3.40245 27.4044 3.35808C27.4719 3.19094 27.4943 3.00899 27.4692 2.83048C27.4463 2.67727 27.4072 2.52692 27.3526 2.38195C27.3059 2.25232 27.2554 2.12269 27.2048 1.99305C27.1533 1.84622 27.0913 1.70326 27.0194 1.56527C26.9337 1.40119 26.8016 1.26594 26.6396 1.17637C26.4703 1.08858 26.2744 1.06687 26.09 1.11544C25.9963 1.13899 25.9081 1.18084 25.8307 1.23859C25.7934 1.26747 25.7587 1.29957 25.727 1.33452C25.6967 1.36949 25.6685 1.40629 25.6427 1.44471C25.6194 1.48489 25.5987 1.52767 25.5792 1.57434C25.5598 1.62101 25.5468 1.65731 25.5325 1.69749C25.5116 1.77599 25.4951 1.85563 25.4833 1.93602C25.4681 2.06442 25.4447 2.19172 25.4133 2.31713C25.3809 2.43121 25.3355 2.54399 25.2836 2.68659C25.2199 2.84918 25.1886 3.02271 25.1916 3.19734C25.1996 3.39471 25.2762 3.58312 25.4081 3.73013C25.445 3.76818 25.4849 3.80329 25.5274 3.83513Z" fill="#2FAC66"/>
<path d="M33.6188 20.0002H36.73V29.7486L45.2416 20.0002H48.078L40.6228 28.5119L49.0749 40.827H45.2079L38.5072 30.927L36.7274 32.9492V40.827H33.6162L33.6188 20.0002Z" fill="#2FAC66"/>
<path d="M55.8666 26.0359C59.5495 26.0359 62.4169 28.6622 62.4169 33.6725C62.4169 38.3808 59.9423 41.1277 55.8666 41.1277C52.0334 41.1277 49.2554 38.5623 49.2554 33.609C49.2567 28.9345 51.9738 26.0359 55.8666 26.0359ZM55.8368 28.3304C53.6032 28.3304 52.1851 30.2917 52.1851 33.552C52.1851 37.1739 53.6032 39.0458 55.8666 39.0458C58.0107 39.0458 59.4886 37.2646 59.4886 33.552C59.4886 30.4136 58.1909 28.3304 55.8368 28.3304Z" fill="#2FAC66"/>
<path d="M65.2364 27.9079H62.9121V26.7918L65.2364 26.4898V23.0765L68.1648 22.8652V26.4872H72.0538V27.9053H68.1648V36.8694C68.1648 38.1982 68.5265 39.1328 69.9447 39.1328C71.123 39.1328 71.6299 38.5896 71.6299 37.6848H72.3843C72.3843 39.8575 71.4497 41.1253 69.0645 41.1253C66.3785 41.1253 65.2312 39.7071 65.2312 36.4468L65.2364 27.9079Z" fill="#2FAC66"/>
<path d="M79.3507 33.0088C80.3165 33.0088 81.5545 33.2499 82.2778 33.5818V31.5906C82.2778 29.2961 81.2226 28.18 79.2003 28.18C77.2079 28.18 76.1216 29.5074 75.9103 31.0475H74.763C74.763 28.3602 76.2421 26.0359 79.9483 26.0359C83.4186 26.0359 85.0494 27.9687 85.0494 31.0475V36.7811C85.0494 39.2571 85.6223 39.7393 86.3159 39.7393C86.5115 39.7352 86.7013 39.6719 86.8603 39.5578L87.1312 40.0764C86.8603 40.5949 86.0747 41.0732 85.1388 41.0732C83.5391 41.0732 82.5137 40.5288 82.3024 38.5376C81.548 39.9856 80.1894 41.1303 77.9559 41.1303C75.3904 41.1303 74.0669 39.5008 74.0669 37.358C74.0682 35.0311 75.5175 33.0088 79.3507 33.0088ZM79.1096 39.2312C81.373 39.2312 82.2778 36.9678 82.2778 34.8846V34.7342C81.5605 34.5297 80.8198 34.4182 80.0741 34.4024C77.9312 34.4024 76.9629 35.4589 76.9629 37.1182C76.9668 38.4715 77.751 39.226 79.1096 39.226V39.2312Z" fill="#2FAC66"/>
<path d="M98.2709 40.8258V33.1295C98.2709 29.9004 97.5761 28.4809 95.4035 28.4809C93.0792 28.4809 92.0525 30.8661 91.9929 34.8497V40.8258H89.0645V19.5479L91.9929 19.3962V30.7456C92.4751 28.1801 93.7131 26.036 96.6713 26.036C100.171 26.036 101.198 28.3007 101.198 31.771V40.8258H98.2709Z" fill="#2FAC66"/>
<path d="M101.196 21.3588C101.192 21.0131 101.315 20.6778 101.541 20.4164C101.563 20.3594 101.587 20.3023 101.609 20.244C101.686 20.0271 101.778 19.8158 101.883 19.6114C102.011 19.3709 102.207 19.1731 102.446 19.0423C102.697 18.913 102.986 18.8807 103.259 18.9516C103.326 18.9711 103.392 18.9954 103.456 19.0242C103.517 19.0564 103.577 19.0928 103.633 19.133C103.688 19.1768 103.739 19.2245 103.786 19.2756C103.833 19.3277 103.876 19.3827 103.916 19.4403C103.951 19.4999 103.982 19.5608 104.011 19.6205C104.039 19.6801 104.059 19.7501 104.078 19.8045C104.11 19.9199 104.135 20.0372 104.152 20.1558C104.178 20.3296 104.2 20.4709 104.231 20.607C104.506 20.9591 104.651 21.3947 104.643 21.8411C104.647 22.163 104.536 22.4758 104.331 22.7239C104.309 22.7537 104.289 22.7848 104.265 22.812C104.214 22.8658 104.16 22.916 104.103 22.9624C104.043 23.0065 103.983 23.0518 103.92 23.092C103.856 23.1322 103.79 23.1659 103.722 23.197C103.653 23.2281 103.583 23.2528 103.513 23.2761C103.222 23.3622 102.914 23.3702 102.62 23.2994C102.333 23.2289 102.065 23.0961 101.835 22.9105C101.781 22.8652 101.727 22.8185 101.676 22.7705C101.625 22.7226 101.578 22.6681 101.532 22.6163C101.487 22.5644 101.448 22.5035 101.412 22.4452C101.377 22.3848 101.346 22.3225 101.318 22.2585C101.227 22.0321 101.193 21.7869 101.218 21.5442C101.209 21.4833 101.196 21.4237 101.196 21.3588Z" fill="#2FAC66"/>
<path d="M104.971 26.8217C104.761 27.1787 104.646 27.5843 104.639 27.9987C104.639 31.1099 108.442 32.8885 108.442 37.2026C108.442 38.4705 108.053 39.6773 107.416 41.1266H106.45L105.215 37.1741C104.279 34.1563 102.981 31.3186 102.981 29.5375C102.981 28.4213 103.163 27.5463 104.068 26.5806L104.971 26.8217Z" fill="#2FAC66"/>
</g>
<defs>
<clipPath id="clip0_887_2653">
<rect width="108.442" height="48" fill="white"/>
</clipPath>
</defs>
</svg>
