<svg width="116" height="48" viewBox="0 0 116 48" fill="none" xmlns="http://www.w3.org/2000/svg">
<g clip-path="url(#clip0_887_2734)">
<path d="M32 17.8899V41.3999L41 36.0699V12.6899L32 17.8899Z" fill="#732060"/>
<path d="M21.25 47.77L31 41.99V31.75L21.25 37.37V47.77Z" fill="#046535"/>
<path d="M1 25.6802V36.0702L21.25 47.7702V37.3702L1 25.6802Z" fill="#629F43"/>
<path d="M10 17.89L30.14 6.26L21.25 1L1 12.69L10 17.89Z" fill="#0A9DD9"/>
<path d="M10 17.8899L1 12.6899V23.9499L10 29.1499V17.8899Z" fill="#0961AB"/>
<path d="M51 30.6298V19.2998H53.75V28.2398H58.13V30.6198H51V30.6298Z" fill="#212121"/>
<path d="M61.02 30.6298V19.2998H63.77V30.6298H61.02Z" fill="#212121"/>
<path d="M76.5402 27.3398C76.5402 27.9598 76.4202 28.4798 76.1702 28.8998C75.9202 29.3198 75.6002 29.6598 75.1902 29.9198C74.7802 30.1798 74.3202 30.3598 73.8102 30.4698C73.2902 30.5798 72.7602 30.6398 72.2202 30.6398H67.7002V19.2998H72.2102C72.6502 19.2998 73.1002 19.3498 73.5502 19.4398C74.0002 19.5298 74.4202 19.6898 74.8002 19.8998C75.1702 20.1198 75.4802 20.4098 75.7102 20.7898C75.9402 21.1598 76.0602 21.6398 76.0602 22.2098C76.0602 22.8398 75.8902 23.3598 75.5502 23.7698C75.2102 24.1798 74.7602 24.4798 74.2102 24.6598V24.6898C74.5302 24.7398 74.8302 24.8398 75.1102 24.9898C75.3902 25.1398 75.6402 25.3198 75.8502 25.5398C76.0602 25.7598 76.2202 26.0298 76.3502 26.3198C76.4702 26.6298 76.5402 26.9598 76.5402 27.3398ZM73.4302 22.5798C73.4302 22.1998 73.2802 21.9198 72.9902 21.7398C72.7002 21.5598 72.2602 21.4798 71.6902 21.4798H70.3502V23.8198H71.8202C72.3302 23.8198 72.7302 23.7198 73.0102 23.5098C73.2902 23.2998 73.4302 22.9898 73.4302 22.5798ZM73.8002 27.0798C73.8002 26.6098 73.6202 26.2898 73.2702 26.0998C72.9202 25.9198 72.4502 25.8298 71.8602 25.8298H70.3402V28.4198H71.8802C72.0902 28.4198 72.3102 28.3998 72.5402 28.3598C72.7702 28.3198 72.9802 28.2598 73.1602 28.1598C73.3502 28.0598 73.5002 27.9298 73.6202 27.7498C73.7402 27.5798 73.8002 27.3598 73.8002 27.0798Z" fill="#212121"/>
<path d="M79.9399 30.6298V19.2998H87.5599V21.5998H82.5799V23.7398H87.2799V25.9298H82.5799V28.2798H87.8399V30.6198H79.9399V30.6298Z" fill="#212121"/>
<path d="M97.3198 30.6298L94.8598 26.1298H93.9298V30.6298H91.2598V19.2998H95.5798C96.1198 19.2998 96.6498 19.3598 97.1698 19.4698C97.6898 19.5798 98.1498 19.7698 98.5598 20.0398C98.9698 20.3098 99.2998 20.6598 99.5398 21.0998C99.7898 21.5398 99.9098 22.0798 99.9098 22.7298C99.9098 23.4998 99.6998 24.1398 99.2898 24.6698C98.8698 25.1898 98.2998 25.5698 97.5598 25.7898L100.52 30.6398H97.3198V30.6298ZM97.2098 22.7798C97.2098 22.5098 97.1498 22.2998 97.0398 22.1298C96.9298 21.9598 96.7798 21.8398 96.6098 21.7498C96.4298 21.6598 96.2298 21.5998 96.0098 21.5698C95.7898 21.5398 95.5798 21.5198 95.3798 21.5198H93.9198V24.1598H95.2198C95.4398 24.1598 95.6798 24.1398 95.9098 24.0998C96.1498 24.0598 96.3598 23.9998 96.5498 23.8998C96.7398 23.7998 96.8998 23.6698 97.0198 23.4798C97.1498 23.2998 97.2098 23.0598 97.2098 22.7798Z" fill="#212121"/>
<path d="M115.27 24.92C115.27 25.82 115.12 26.63 114.81 27.38C114.5 28.12 114.07 28.76 113.52 29.28C112.97 29.81 112.32 30.22 111.56 30.5C110.8 30.79 109.98 30.93 109.1 30.93C108.22 30.93 107.4 30.79 106.64 30.5C105.89 30.21 105.24 29.8 104.69 29.28C104.14 28.75 103.71 28.12 103.4 27.38C103.09 26.64 102.94 25.82 102.94 24.92C102.94 24.01 103.09 23.19 103.4 22.46C103.71 21.73 104.14 21.11 104.69 20.6C105.24 20.09 105.89 19.69 106.64 19.42C107.39 19.14 108.21 19 109.1 19C109.99 19 110.81 19.14 111.56 19.42C112.32 19.7 112.97 20.09 113.52 20.6C114.07 21.11 114.5 21.73 114.81 22.46C115.12 23.19 115.27 24.01 115.27 24.92ZM112.34 24.92C112.34 24.43 112.26 23.97 112.1 23.54C111.94 23.11 111.72 22.75 111.44 22.44C111.16 22.14 110.82 21.9 110.42 21.72C110.02 21.54 109.58 21.46 109.1 21.46C108.62 21.46 108.18 21.55 107.79 21.72C107.4 21.9 107.05 22.14 106.77 22.44C106.48 22.74 106.26 23.11 106.11 23.54C105.96 23.97 105.88 24.43 105.88 24.92C105.88 25.43 105.96 25.9 106.12 26.34C106.28 26.77 106.5 27.14 106.78 27.45C107.06 27.76 107.4 28 107.8 28.18C108.19 28.36 108.63 28.44 109.11 28.44C109.59 28.44 110.03 28.35 110.42 28.18C110.81 28 111.16 27.76 111.44 27.45C111.73 27.14 111.95 26.77 112.11 26.34C112.26 25.9 112.34 25.43 112.34 24.92Z" fill="#212121"/>
<path d="M31.37 6.99023L22.25 12.2602L32 17.8902L41 12.6902L31.37 6.99023Z" fill="#CF0C4E"/>
</g>
<defs>
<clipPath id="clip0_887_2734">
<rect width="116" height="48" fill="white"/>
</clipPath>
</defs>
</svg>
