<svg width="24" height="24" viewBox="0 0 24 24" fill="none" xmlns="http://www.w3.org/2000/svg">
<g clip-path="url(#clip0_639_1052)">
<path d="M18.9728 18.9727H16.0213V14.3505C16.0213 13.2483 16.0016 11.8294 14.4862 11.8294C12.9489 11.8294 12.7137 13.0303 12.7137 14.2703V18.9724H9.76219V9.4673H12.5957V10.7663H12.6353C13.2131 9.77842 14.2873 9.18842 15.431 9.23087C18.4224 9.23087 18.974 11.1985 18.974 13.7584L18.9728 18.9727ZM6.43189 8.16801C5.48594 8.16818 4.71895 7.40147 4.71878 6.45551C4.71861 5.50956 5.48532 4.74257 6.43128 4.7424C7.37723 4.74223 8.14422 5.50894 8.14439 6.4549C8.14447 6.90916 7.96409 7.34485 7.64294 7.66613C7.32178 7.9874 6.88616 8.16793 6.43189 8.16801ZM7.90765 18.9727H4.95306V9.4673H7.90765V18.9727ZM20.4442 2.00149H3.46992C2.66768 1.99243 2.00979 2.63504 2 3.43728V20.482C2.00946 21.2846 2.66729 21.9279 3.46992 21.9194H20.4442C21.2485 21.9294 21.9089 21.2862 21.92 20.482V3.43605C21.9085 2.63223 21.2481 1.98965 20.4442 2.00013" fill="white"/>
</g>
<defs>
<clipPath id="clip0_639_1052">
<rect width="24" height="24" fill="white"/>
</clipPath>
</defs>
</svg>
