<svg width="24" height="24" viewBox="0 0 24 24" fill="none" xmlns="http://www.w3.org/2000/svg">
<g clip-path="url(#clip0_651_1123)">
<path d="M18.2969 18.2969H15.6298V14.1201C15.6298 13.1241 15.6121 11.842 14.2427 11.842C12.8536 11.842 12.6411 12.9272 12.6411 14.0476V18.2966H9.97405V9.70748H12.5344V10.8813H12.5702C13.0923 9.98863 14.063 9.45548 15.0964 9.49384C17.7996 9.49384 18.298 11.2719 18.298 13.585L18.2969 18.2969ZM6.96475 8.5334C6.10997 8.53356 5.41691 7.84073 5.41675 6.98593C5.4166 6.13114 6.10941 5.43806 6.96419 5.43791C7.81897 5.43775 8.51203 6.13058 8.51218 6.98538C8.51226 7.39587 8.34926 7.78957 8.05906 8.07988C7.76886 8.37019 7.37522 8.53333 6.96475 8.5334ZM8.29826 18.2969H5.62845V9.70748H8.29826V18.2969ZM19.6265 2.96112H4.28826C3.56335 2.95294 2.96887 3.53363 2.96002 4.25855V19.6607C2.96857 20.386 3.56299 20.9673 4.28826 20.9597H19.6265C20.3532 20.9687 20.95 20.3875 20.96 19.6607V4.25744C20.9497 3.53108 20.3529 2.95043 19.6265 2.95989" fill="#D50072"/>
</g>
<defs>
<clipPath id="clip0_651_1123">
<rect width="24" height="24" fill="white"/>
</clipPath>
</defs>
</svg>
