<?xml version="1.0" encoding="UTF-8"?>
<svg id="Layer_1" xmlns="http://www.w3.org/2000/svg" width="1001.123" height="348.176" version="1.1" viewBox="0 0 1001.123 348.176">
  <!-- Generator: Adobe Illustrator 30.4.0, SVG Export Plug-In . SVG Version: 2.1.4 Build 226)  -->
  <path d="M205.664,117.342c-2.014,13.742-6.747,25.802-14.197,36.187-7.455,10.39-16.962,18.384-28.52,23.994-11.558,5.615-24.544,8.417-38.947,8.417-12.901,0-24.75-2.305-35.557-6.911-10.802-4.605-20.224-11.093-28.266-19.473-8.042-8.375-14.239-18.252-18.596-29.646-2.908-7.598-4.838-15.682-5.806-24.248-.481-4.277-.724-8.671-.724-13.192,0-4.235.212-8.359.64-12.362.931-8.835,2.892-17.11,5.89-24.829,4.357-11.22,10.511-20.98,18.469-29.271,7.957-8.291,17.337-14.699,28.145-19.225C98.997,2.263,110.936,0,124.001,0c14.403,0,27.388,2.85,38.947,8.544,11.558,5.694,21.065,13.694,28.52,23.994,7.45,10.305,12.018,22.408,13.694,36.314h-32.163c-2.009-13.573-7.455-23.999-16.333-31.285-8.883-7.286-19.685-10.929-32.417-10.929-11.225,0-21.023,2.681-29.398,8.037-8.38,5.367-14.91,12.943-19.6,22.741-3.215,6.72-5.324,14.286-6.334,22.693-.465,3.86-.698,7.894-.698,12.108,0,4.7.275,9.184.825,13.446,1.052,8.185,3.125,15.555,6.207,22.112,4.69,9.967,11.31,17.713,19.854,23.243,8.539,5.525,18.342,8.291,29.398,8.291,12.394,0,23.032-3.643,31.909-10.929,8.877-7.291,14.487-17.628,16.835-31.037h32.417Z" fill="#0b2545"/>
  <path d="M398.864,80.109c-1.369-13.245-5.012-25.21-10.929-35.885-7.709-13.9-18.384-24.75-32.036-32.538-13.657-7.788-29.361-11.685-47.116-11.685-17.422,0-32.956,3.897-46.608,11.685-13.657,7.788-24.332,18.596-32.036,32.417-5.959,10.675-9.607,22.677-10.955,36.007-.402,3.923-.603,7.957-.603,12.108,0,4.611.249,9.089.751,13.446.989,8.624,2.956,16.75,5.906,24.369,4.436,11.479,10.717,21.403,18.844,29.778,8.127,8.375,17.718,14.826,28.774,19.346,11.056,4.526,23.116,6.784,36.181,6.784s25.126-2.258,36.181-6.784c11.056-4.521,20.647-10.971,28.774-19.346,8.121-8.375,14.403-18.257,18.844-29.651,2.977-7.635,4.954-15.799,5.932-24.496.481-4.267.724-8.666.724-13.192,0-4.235-.206-8.359-.629-12.362ZM365.38,105.663c-1.116,7.751-3.231,14.873-6.34,21.356-4.859,10.136-11.6,18.051-20.229,23.746-8.629,5.694-18.633,8.544-30.027,8.544-11.225,0-21.149-2.85-29.773-8.544-8.629-5.694-15.328-13.567-20.103-23.619-3.072-6.466-5.155-13.626-6.25-21.483-.608-4.352-.909-8.914-.909-13.694,0-4.124.227-8.079.682-11.86,1.005-8.354,3.12-15.878,6.35-22.566,4.69-9.713,11.347-17.295,19.976-22.741,8.629-5.441,18.633-8.164,30.027-8.164,11.558,0,21.652,2.723,30.281,8.164,8.624,5.446,15.328,13.065,20.103,22.868,3.273,6.715,5.42,14.191,6.451,22.44.471,3.791.708,7.746.708,11.86,0,4.764-.317,9.332-.946,13.694Z" fill="#0b2545"/>
  <path d="M610.131,2.511v180.917h-32.163V30.011l-15.836,50.098-8.074,25.554-19.32,61.117c-3.135,9.914-12.33,16.65-22.725,16.65s-19.595-6.741-22.725-16.655l-19.309-61.111-8.074-25.554-15.603-49.379v152.699h-30.651V2.511h50.753l24.597,77.597,8.1,25.554,13.663,43.097,13.663-43.097,8.1-25.554,24.597-77.597h51.007Z" fill="#0b2545"/>
  <path d="M757.881,157.547v25.882h-130.159V2.511h127.394v25.882h-94.728v51.89h74.388c7.905,0,14.308,6.403,14.308,14.308v11.072h-88.695v51.885h97.494Z" fill="#0b2545"/>
  <polygon points="922.937 2.511 922.937 28.393 862.883 28.393 862.883 183.429 830.218 183.429 830.218 28.393 770.164 28.393 770.164 2.511 922.937 2.511" fill="#0b2545"/>
  <path d="M922.859,160.793v22.534c30.727,0,55.731,25.004,55.731,55.74s-25.004,55.731-55.731,55.731v22.534c43.229,0,78.264-35.036,78.264-78.264s-35.036-78.274-78.264-78.274Z" fill="#e2d3a6"/>
  <path d="M872.461,239.066c0,2.59.19,5.17.59,7.7h-49.08v.05H0v-15.45h812.08v-.05h60.98c-.4,2.55-.6,5.14-.6,7.75Z" fill="#e2d3a6"/>
  <g>
    <path d="M63.081,334.417v-46.08h19.506c3.294,0,6.16.555,8.599,1.664,2.438,1.11,4.31,2.667,5.614,4.672,1.305,2.006,1.957,4.353,1.957,7.04,0,2.646-.652,4.971-1.957,6.977s-3.176,3.562-5.614,4.672-5.305,1.664-8.599,1.664h-12.961v-6.336h12.705c2.695,0,4.758-.618,6.191-1.856,1.434-1.237,2.15-2.944,2.15-5.12s-.707-3.85-2.118-5.023-3.487-1.761-6.224-1.761h-10.908v39.488h-8.342ZM89.517,334.417l-20.597-23.552h9.368l22.779,23.552h-11.551Z" fill="#0b2545"/>
    <path d="M105.238,296.401v-8.896h8.791v8.896h-8.791ZM105.623,334.417v-32.64h8.085v32.64h-8.085Z" fill="#0b2545"/>
    <path d="M136.359,335.056c-3.295,0-6.191-.725-8.695-2.176-2.502-1.45-4.47-3.466-5.902-6.048-1.434-2.581-2.15-5.514-2.15-8.8s.717-6.197,2.15-8.736c1.433-2.538,3.4-4.533,5.902-5.983,2.504-1.45,5.4-2.177,8.695-2.177,2.695,0,5.133.502,7.314,1.504,2.182,1.003,3.979,2.411,5.391,4.225s2.31,3.915,2.695,6.304h-7.765c-.472-1.749-1.37-3.114-2.694-4.096-1.327-.981-2.932-1.473-4.812-1.473-1.756,0-3.264.428-4.524,1.28-1.263.854-2.235,2.07-2.919,3.648-.686,1.579-1.027,3.414-1.027,5.504,0,2.134.342,3.99,1.027,5.567.684,1.579,1.668,2.807,2.951,3.681,1.283.875,2.78,1.312,4.492,1.312,1.881,0,3.485-.49,4.812-1.472,1.324-.981,2.223-2.346,2.694-4.096h7.765c-.386,2.39-1.295,4.49-2.728,6.304-1.434,1.813-3.23,3.222-5.39,4.224-2.161,1.002-4.588,1.504-7.283,1.504Z" fill="#0b2545"/>
    <path d="M157.597,334.417v-46.08h8.085v46.08h-8.085ZM180.568,334.417v-20.608c0-2.005-.513-3.52-1.539-4.544-1.027-1.023-2.525-1.536-4.492-1.536-1.711,0-3.24.385-4.588,1.152-1.348.769-2.396,1.835-3.145,3.2-.748,1.366-1.122,2.944-1.122,4.736l-.835-7.809c1.112-2.389,2.738-4.298,4.877-5.728s4.705-2.145,7.7-2.145c3.55,0,6.32,1.003,8.31,3.008,1.989,2.007,2.984,4.673,2.984,8v22.272h-8.15Z" fill="#0b2545"/>
    <path d="M211.561,335.056c-3.465,0-6.491-.725-9.079-2.176-2.589-1.45-4.6-3.456-6.032-6.016-1.434-2.561-2.149-5.504-2.149-8.832s.716-6.261,2.149-8.8c1.433-2.538,3.433-4.522,6-5.952,2.566-1.43,5.56-2.145,8.983-2.145,3.25,0,6.073.672,8.47,2.017,2.396,1.344,4.256,3.231,5.583,5.664,1.324,2.432,1.988,5.27,1.988,8.512,0,.598-.021,1.152-.064,1.664s-.107,1.023-.191,1.536h-27.913v-5.632h21.688l-1.668,1.535c0-3.071-.706-5.376-2.117-6.912-1.412-1.535-3.381-2.304-5.904-2.304-2.738,0-4.908.939-6.513,2.816-1.604,1.878-2.406,4.587-2.406,8.128,0,3.499.802,6.176,2.406,8.032,1.604,1.855,3.882,2.783,6.834,2.783,1.71,0,3.208-.319,4.491-.96,1.283-.64,2.225-1.621,2.824-2.943h7.635c-1.069,3.071-2.877,5.504-5.422,7.296s-5.742,2.688-9.593,2.688Z" fill="#0b2545"/>
    <path d="M233.505,334.417v-32.64h7.893v7.872h.193v24.768h-8.086ZM241.591,317.392l-.835-7.743c.771-2.773,2.075-4.886,3.914-6.336s4.042-2.177,6.609-2.177c.898,0,1.54.086,1.925.256v7.616c-.215-.085-.514-.138-.898-.16-.385-.021-.855-.031-1.411-.031-3.124,0-5.454.683-6.994,2.048-1.54,1.366-2.31,3.542-2.31,6.527Z" fill="#0b2545"/>
    <path d="M270.593,334.417v-46.08h12.962l14.116,44.416h-4.556l14.116-44.416h13.026v46.08h-8.214v-43.328h1.348l-13.73,43.328h-8.92l-13.604-42.944h1.283v42.944h-7.828Z" fill="#0b2545"/>
    <path d="M343.23,335.056c-3.465,0-6.492-.725-9.08-2.176-2.588-1.45-4.599-3.456-6.031-6.016-1.434-2.561-2.15-5.504-2.15-8.832s.717-6.261,2.15-8.8c1.433-2.538,3.433-4.522,6-5.952,2.566-1.43,5.56-2.145,8.982-2.145,3.25,0,6.074.672,8.471,2.017,2.395,1.344,4.256,3.231,5.582,5.664,1.325,2.432,1.989,5.27,1.989,8.512,0,.598-.022,1.152-.064,1.664-.043.512-.107,1.023-.192,1.536h-27.912v-5.632h21.688l-1.668,1.535c0-3.071-.705-5.376-2.117-6.912-1.412-1.535-3.38-2.304-5.903-2.304-2.738,0-4.909.939-6.513,2.816-1.604,1.878-2.406,4.587-2.406,8.128,0,3.499.802,6.176,2.406,8.032,1.604,1.855,3.882,2.783,6.834,2.783,1.71,0,3.207-.319,4.49-.96,1.284-.64,2.225-1.621,2.824-2.943h7.636c-1.069,3.071-2.878,5.504-5.423,7.296s-5.742,2.688-9.592,2.688Z" fill="#0b2545"/>
    <path d="M361.132,308.113v-6.336h23.357v6.336h-23.357ZM379.163,335.056c-4.021,0-6.984-.948-8.887-2.848-1.904-1.898-2.855-4.746-2.855-8.544v-29.312l8.148-3.008v32.513c0,1.578.428,2.752,1.283,3.52s2.203,1.152,4.043,1.152c.727,0,1.38-.054,1.957-.16.578-.106,1.123-.245,1.637-.416v6.271c-.514.257-1.242.458-2.182.608-.941.149-1.989.224-3.145.224Z" fill="#0b2545"/>
    <path d="M399.119,335.056c-3.294,0-5.915-.82-7.86-2.464-1.947-1.642-2.92-3.85-2.92-6.624,0-2.985,1.092-5.354,3.273-7.104,2.182-1.749,5.261-2.922,9.239-3.521l10.202-1.536v5.12l-8.854,1.345c-1.925.299-3.369.832-4.331,1.6-.963.768-1.443,1.835-1.443,3.2,0,1.237.448,2.187,1.347,2.848.898.662,2.139.992,3.722.992,2.311,0,4.234-.576,5.775-1.729,1.539-1.151,2.31-2.56,2.31-4.224l.898,4.928c-.856,2.348-2.257,4.128-4.203,5.345-1.946,1.216-4.331,1.823-7.154,1.823ZM410.477,334.417c-.214-.853-.375-1.792-.481-2.816-.107-1.023-.16-2.261-.16-3.712h-.257v-15.487c0-1.706-.481-2.997-1.444-3.872-.962-.874-2.428-1.312-4.395-1.312-1.926,0-3.455.353-4.588,1.057-1.135.703-1.829,1.718-2.086,3.04h-7.764c.342-3.029,1.797-5.482,4.363-7.36,2.566-1.877,6.01-2.816,10.33-2.816,4.492,0,7.893,1.015,10.203,3.04,2.311,2.027,3.465,5.003,3.465,8.929v14.783c0,1.024.074,2.07.225,3.137.149,1.066.374,2.197.674,3.392h-8.085Z" fill="#0b2545"/>
    <path d="M448.72,334.417v-7.36l.642.128c-.557,2.391-1.903,4.3-4.042,5.729-2.141,1.43-4.685,2.144-7.637,2.144-2.994,0-5.594-.692-7.796-2.08-2.204-1.386-3.903-3.338-5.101-5.855-1.199-2.518-1.797-5.482-1.797-8.896,0-3.456.619-6.464,1.86-9.023,1.24-2.561,2.983-4.544,5.229-5.952s4.865-2.112,7.861-2.112c3.079,0,5.624.736,7.635,2.208,2.011,1.473,3.251,3.511,3.723,6.112l-.835.063v-21.184h8.149v46.08h-7.893ZM440.058,328.464c2.608,0,4.693-.906,6.256-2.72,1.561-1.813,2.342-4.362,2.342-7.648s-.792-5.823-2.374-7.615c-1.583-1.792-3.679-2.688-6.288-2.688-2.566,0-4.643.907-6.225,2.72-1.582,1.814-2.374,4.363-2.374,7.648s.792,5.824,2.374,7.616,3.679,2.688,6.289,2.688Z" fill="#0b2545"/>
    <path d="M474.257,335.056c-3.295,0-5.914-.82-7.859-2.464-1.947-1.642-2.92-3.85-2.92-6.624,0-2.985,1.091-5.354,3.271-7.104,2.182-1.749,5.262-2.922,9.24-3.521l10.203-1.536v5.12l-8.855,1.345c-1.924.299-3.369.832-4.33,1.6-.963.768-1.445,1.835-1.445,3.2,0,1.237.449,2.187,1.348,2.848.898.662,2.139.992,3.723.992,2.309,0,4.234-.576,5.775-1.729,1.539-1.151,2.309-2.56,2.309-4.224l.898,4.928c-.855,2.348-2.256,4.128-4.203,5.345-1.947,1.216-4.33,1.823-7.154,1.823ZM485.615,334.417c-.215-.853-.375-1.792-.48-2.816-.107-1.023-.16-2.261-.16-3.712h-.258v-15.487c0-1.706-.48-2.997-1.443-3.872-.963-.874-2.428-1.312-4.395-1.312-1.926,0-3.455.353-4.588,1.057-1.135.703-1.83,1.718-2.086,3.04h-7.764c.342-3.029,1.797-5.482,4.363-7.36,2.566-1.877,6.01-2.816,10.33-2.816,4.492,0,7.893,1.015,10.203,3.04,2.309,2.027,3.465,5.003,3.465,8.929v14.783c0,1.024.074,2.07.225,3.137.148,1.066.373,2.197.674,3.392h-8.086Z" fill="#0b2545"/>
    <path d="M495.882,308.113v-6.336h23.355v6.336h-23.355ZM513.911,335.056c-4.021,0-6.984-.948-8.887-2.848-1.904-1.898-2.855-4.746-2.855-8.544v-29.312l8.15-3.008v32.513c0,1.578.426,2.752,1.283,3.52.854.768,2.201,1.152,4.041,1.152.727,0,1.381-.054,1.957-.16.578-.106,1.123-.245,1.637-.416v6.271c-.514.257-1.24.458-2.182.608-.941.149-1.988.224-3.145.224Z" fill="#0b2545"/>
    <path d="M533.868,335.056c-3.295,0-5.914-.82-7.861-2.464-1.947-1.642-2.92-3.85-2.92-6.624,0-2.985,1.092-5.354,3.273-7.104,2.182-1.749,5.262-2.922,9.24-3.521l10.201-1.536v5.12l-8.854,1.345c-1.926.299-3.369.832-4.332,1.6s-1.443,1.835-1.443,3.2c0,1.237.449,2.187,1.348,2.848.898.662,2.139.992,3.721.992,2.311,0,4.236-.576,5.775-1.729,1.541-1.151,2.311-2.56,2.311-4.224l.898,4.928c-.857,2.348-2.258,4.128-4.203,5.345-1.947,1.216-4.332,1.823-7.154,1.823ZM545.226,334.417c-.215-.853-.375-1.792-.482-2.816-.107-1.023-.16-2.261-.16-3.712h-.256v-15.487c0-1.706-.482-2.997-1.443-3.872-.963-.874-2.43-1.312-4.396-1.312-1.924,0-3.455.353-4.588,1.057-1.133.703-1.828,1.718-2.086,3.04h-7.764c.342-3.029,1.797-5.482,4.363-7.36,2.566-1.877,6.01-2.816,10.332-2.816,4.49,0,7.891,1.015,10.201,3.04,2.311,2.027,3.465,5.003,3.465,8.929v14.783c0,1.024.074,2.07.225,3.137s.375,2.197.674,3.392h-8.084Z" fill="#0b2545"/>
    <path d="M558.124,334.417v-9.216h9.303v9.216h-9.303Z" fill="#0b2545"/>
    <path d="M601.115,334.417v-39.488h-15.336v-6.592h39.014v6.592h-15.336v39.488h-8.342Z" fill="#0b2545"/>
    <path d="M638.523,335.056c-3.465,0-6.512-.725-9.143-2.176-2.631-1.45-4.674-3.466-6.129-6.048-1.455-2.581-2.182-5.536-2.182-8.864s.727-6.25,2.182-8.768,3.498-4.49,6.129-5.92,5.678-2.145,9.143-2.145c3.508,0,6.566.715,9.176,2.145s4.643,3.402,6.096,5.92c1.455,2.518,2.182,5.439,2.182,8.768s-.736,6.283-2.213,8.864c-1.477,2.582-3.52,4.598-6.127,6.048-2.611,1.451-5.648,2.176-9.113,2.176ZM638.523,328.592c1.711,0,3.252-.437,4.621-1.312,1.367-.874,2.438-2.112,3.207-3.712.771-1.601,1.156-3.488,1.156-5.664,0-3.2-.846-5.717-2.535-7.553-1.689-1.834-3.84-2.752-6.449-2.752s-4.77.918-6.48,2.752c-1.711,1.836-2.566,4.353-2.566,7.553,0,2.176.395,4.063,1.188,5.664.791,1.6,1.861,2.838,3.207,3.712,1.348.875,2.898,1.312,4.652,1.312Z" fill="#0b2545"/>
    <path d="M676.509,348.176c-4.322,0-7.861-.938-10.621-2.815-2.758-1.878-4.395-4.416-4.908-7.616h7.699c.387,1.108,1.23,1.973,2.535,2.592,1.305.618,3.006.928,5.102.928,3.037,0,5.283-.672,6.738-2.016,1.453-1.344,2.182-3.382,2.182-6.112v-7.04l.576.128c-.514,2.391-1.818,4.3-3.914,5.729-2.096,1.43-4.662,2.144-7.699,2.144-2.91,0-5.445-.682-7.604-2.048-2.162-1.365-3.84-3.273-5.037-5.728-1.199-2.453-1.797-5.322-1.797-8.608,0-3.328.619-6.229,1.861-8.704,1.24-2.474,2.982-4.405,5.229-5.792,2.246-1.386,4.865-2.08,7.861-2.08,3.08,0,5.613.736,7.604,2.208,1.988,1.473,3.219,3.511,3.689,6.112l-.514.063v-7.743h7.893v31.296c0,4.649-1.508,8.33-4.523,11.04-3.016,2.709-7.135,4.063-12.352,4.063ZM676.829,327.697c2.607,0,4.693-.886,6.256-2.656,1.561-1.771,2.342-4.256,2.342-7.456s-.791-5.674-2.373-7.424c-1.584-1.749-3.68-2.624-6.289-2.624-2.566,0-4.643.886-6.225,2.656s-2.373,4.256-2.373,7.456.791,5.675,2.373,7.424c1.582,1.75,3.68,2.624,6.289,2.624Z" fill="#0b2545"/>
    <path d="M716.675,335.056c-3.465,0-6.492-.725-9.078-2.176-2.59-1.45-4.6-3.456-6.033-6.016-1.434-2.561-2.148-5.504-2.148-8.832s.715-6.261,2.148-8.8c1.434-2.538,3.434-4.522,6-5.952s5.561-2.145,8.984-2.145c3.25,0,6.072.672,8.469,2.017,2.396,1.344,4.256,3.231,5.582,5.664,1.326,2.432,1.99,5.27,1.99,8.512,0,.598-.021,1.152-.064,1.664s-.107,1.023-.193,1.536h-27.912v-5.632h21.689l-1.668,1.535c0-3.071-.707-5.376-2.119-6.912-1.41-1.535-3.379-2.304-5.902-2.304-2.738,0-4.908.939-6.514,2.816-1.604,1.878-2.406,4.587-2.406,8.128,0,3.499.803,6.176,2.406,8.032,1.605,1.855,3.883,2.783,6.834,2.783,1.711,0,3.209-.319,4.492-.96,1.283-.64,2.223-1.621,2.822-2.943h7.637c-1.07,3.071-2.877,5.504-5.422,7.296s-5.744,2.688-9.594,2.688Z" fill="#0b2545"/>
    <path d="M734.579,308.113v-6.336h23.355v6.336h-23.355ZM752.609,335.056c-4.021,0-6.984-.948-8.887-2.848-1.904-1.898-2.855-4.746-2.855-8.544v-29.312l8.15-3.008v32.513c0,1.578.426,2.752,1.283,3.52.854.768,2.201,1.152,4.041,1.152.727,0,1.381-.054,1.957-.16.578-.106,1.123-.245,1.637-.416v6.271c-.514.257-1.24.458-2.182.608-.941.149-1.988.224-3.145.224Z" fill="#0b2545"/>
    <path d="M763.966,334.417v-46.08h8.084v46.08h-8.084ZM786.937,334.417v-20.608c0-2.005-.512-3.52-1.539-4.544-1.027-1.023-2.525-1.536-4.492-1.536-1.711,0-3.24.385-4.588,1.152-1.348.769-2.396,1.835-3.145,3.2-.748,1.366-1.123,2.944-1.123,4.736l-.834-7.809c1.113-2.389,2.738-4.298,4.877-5.728s4.705-2.145,7.701-2.145c3.549,0,6.32,1.003,8.309,3.008,1.988,2.007,2.984,4.673,2.984,8v22.272h-8.15Z" fill="#0b2545"/>
    <path d="M817.931,335.056c-3.465,0-6.492-.725-9.08-2.176-2.588-1.45-4.6-3.456-6.031-6.016-1.434-2.561-2.15-5.504-2.15-8.832s.717-6.261,2.15-8.8c1.432-2.538,3.434-4.522,6-5.952s5.561-2.145,8.982-2.145c3.25,0,6.074.672,8.471,2.017,2.395,1.344,4.256,3.231,5.582,5.664,1.326,2.432,1.988,5.27,1.988,8.512,0,.598-.021,1.152-.062,1.664-.045.512-.107,1.023-.193,1.536h-27.912v-5.632h21.688l-1.668,1.535c0-3.071-.705-5.376-2.117-6.912-1.412-1.535-3.381-2.304-5.904-2.304-2.738,0-4.908.939-6.512,2.816-1.605,1.878-2.406,4.587-2.406,8.128,0,3.499.801,6.176,2.406,8.032,1.604,1.855,3.881,2.783,6.834,2.783,1.709,0,3.207-.319,4.49-.96,1.283-.64,2.225-1.621,2.824-2.943h7.635c-1.068,3.071-2.877,5.504-5.422,7.296s-5.742,2.688-9.592,2.688Z" fill="#0b2545"/>
    <path d="M839.874,334.417v-32.64h7.893v7.872h.193v24.768h-8.086ZM847.96,317.392l-.834-7.743c.77-2.773,2.074-4.886,3.914-6.336,1.838-1.45,4.043-2.177,6.609-2.177.898,0,1.539.086,1.924.256v7.616c-.215-.085-.512-.138-.898-.16-.385-.021-.855-.031-1.41-.031-3.123,0-5.455.683-6.994,2.048-1.541,1.366-2.311,3.542-2.311,6.527Z" fill="#0b2545"/>
    <path d="M858.099,334.417v-9.216h9.305v9.216h-9.305Z" fill="#0b2545"/>
  </g>
  <path d="M965.261,239.066c0,23.41-18.98,42.4-42.4,42.4-19.62,0-36.13-13.33-40.96-31.42-.95-3.5-1.44-7.18-1.44-10.98,0-3.85.51-7.59,1.48-11.13,4.88-18.02,21.35-31.27,40.92-31.27,23.42,0,42.4,18.98,42.4,42.4Z" fill="#b69121"/>
</svg>