<svg width="120" height="31" viewBox="0 0 120 31" fill="none" xmlns="http://www.w3.org/2000/svg">
<g clip-path="url(#clip0_723_2959)">
<path d="M30.7646 16.9023V20.8777H28.6316V10.1226H33.1362C35.0006 10.1226 36 11.4631 36 13.5124C36 15.5618 35.0006 16.9023 33.1362 16.9023H30.7646ZM32.8095 12.078H30.7099V15.0112H32.8095C33.3754 15.0112 33.7329 14.7334 33.7329 14.0078V13.0815C33.7329 12.3559 33.3754 12.078 32.8095 12.078Z" fill="#E4002C"/>
<path d="M43.0794 16.8098H41.6821V20.8777H39.579V10.1226H44.0207C45.859 10.1226 46.8445 11.4323 46.8445 13.4662C46.8445 15.0379 46.2562 16.1781 45.1531 16.6095L46.9474 20.8777H44.6678L43.0794 16.8098ZM41.6573 12.078V15.0112H43.7569C44.3228 15.0112 44.6802 14.7488 44.6802 14.0078V13.0815C44.6802 12.3405 44.3228 12.078 43.7569 12.078H41.6573Z" fill="#E4002C"/>
<path d="M56.8421 20.8777V18.9516H52.617V16.3938H56.1987V14.4832H52.617V12.0486H56.8421V10.1226H50.5263V20.8777H56.8421Z" fill="#E4002C"/>
<path d="M63.7969 16.3784H61.7773V20.8777H60.4211V10.1226H64.3423C66.0522 10.1226 66.9369 11.1857 66.9369 13.2505C66.9369 14.9608 66.3324 15.9778 65.1531 16.2859L67.1579 20.8777H65.6543L63.7969 16.3784ZM61.731 11.2958V15.0112H64.231C65.0447 15.0112 65.4737 14.575 65.4737 13.6424V12.6647C65.4737 11.7321 65.0447 11.2958 64.231 11.2958H61.731Z" fill="#181818"/>
<path d="M76.4211 20.8777V19.645H72.0609V16.0548H76.0613V14.8221H72.0609V11.3552H76.4211V10.1226H70.7369V20.8777H76.4211Z" fill="#181818"/>
<path d="M84.5257 20.8777L87.579 10.1226H86.179L84.2577 16.9947L83.7811 19.6296H83.6173L83.1257 16.9947L81.2194 10.1226H79.7895L82.8428 20.8777H84.5257Z" fill="#181818"/>
<path d="M95.3684 20.8777V19.722H93.9225V11.2782H95.3684V10.1226H90.9474V11.2782H92.3933V19.722H90.9474V20.8777H95.3684Z" fill="#181818"/>
<path d="M104.632 20.8777V19.645H100.271V16.0548H104.272V14.8221H100.271V11.3552H104.632V10.1226H98.9474V20.8777H104.632Z" fill="#181818"/>
<path d="M112.041 20.8777L113.547 14.0671L113.9 11.4631H114.084L114.438 14.0671L115.882 20.8777H117.588L120 10.1226H118.587L117.234 16.8869L116.865 19.4138H116.697L116.343 16.8869L114.914 10.1226H113.116L111.703 16.8869L111.334 19.4138H111.165L110.796 16.8869L109.444 10.1226H108L110.305 20.8777H112.041Z" fill="#181818"/>
<path d="M20.7895 3.26855H1V27.7311H20.7895V3.26855Z" fill="white"/>
<path d="M19.0526 2.53052C20.2735 2.53052 21.2632 3.52189 21.2632 4.7448V26.255H19.7895V4.7448C19.7895 4.33716 19.4596 4.00671 19.0526 4.00671H2.21053C1.80358 4.00671 1.47368 4.33716 1.47368 4.7448V26.255C1.47368 26.6626 1.80358 26.9931 2.21053 26.9931H14.7368V28.4693H2.21053C0.989686 28.4693 0 27.4779 0 26.255V4.7448C0 3.52189 0.989686 2.53052 2.21053 2.53052H19.0526Z" fill="#181818"/>
<path d="M18 27.7311L13.7895 30.8944V24.5679L18 27.7311Z" fill="#E4002C"/>
<rect x="5" y="8.64624" width="11.1579" height="1.68707" fill="#181818"/>
<rect x="5" y="14.7617" width="11.1579" height="1.68707" fill="#181818"/>
<rect x="5" y="20.8774" width="11.1579" height="1.68707" fill="#181818"/>
</g>
<defs>
<clipPath id="clip0_723_2959">
<rect width="120" height="31" fill="white"/>
</clipPath>
</defs>
</svg>
