<svg width="148" height="48" viewBox="0 0 148 48" fill="none" xmlns="http://www.w3.org/2000/svg">
<path d="M37.7133 23.617V28.4901H35.0986V15.3064H40.6204C42.9058 15.3064 44.1309 16.9496 44.1309 19.4616C44.1309 21.9738 42.9058 23.617 40.6204 23.617H37.7133ZM40.2199 17.7033H37.6462V21.2989H40.2199C40.9136 21.2989 41.3518 20.9583 41.3518 20.0689V18.9334C41.3518 18.044 40.9136 17.7033 40.2199 17.7033Z" fill="#E4002C"/>
<path d="M52.8079 23.5036H51.0951V28.4901H48.5171V15.3064H53.9618C56.2152 15.3064 57.4232 16.9118 57.4232 19.405C57.4232 21.3316 56.702 22.7293 55.3499 23.2581L57.5493 28.4901H54.755L52.8079 23.5036ZM51.0647 17.7033V21.2989H53.6384C54.3321 21.2989 54.7702 20.9772 54.7702 20.0689V18.9334C54.7702 18.0251 54.3321 17.7033 53.6384 17.7033H51.0647Z" fill="#E4002C"/>
<path d="M69.6775 28.4901V26.129H64.4983V22.9937H68.8888V20.6516H64.4983V17.6673H69.6775V15.3064H61.9355V28.4901H69.6775Z" fill="#E4002C"/>
<path d="M78.2035 22.9748H75.7279V28.4901H74.0654V15.3064H78.8721C80.9681 15.3064 82.0525 16.6096 82.0525 19.1406C82.0525 21.2371 81.3115 22.4837 79.8659 22.8614L82.3234 28.4901H80.4803L78.2035 22.9748ZM75.6711 16.7445V21.2989H78.7356C79.7331 21.2989 80.2589 20.7642 80.2589 19.621V18.4225C80.2589 17.2793 79.7331 16.7445 78.7356 16.7445H75.6711Z" fill="#181818"/>
<path d="M93.6767 28.4901V26.979H88.3319V22.5781H93.2357V21.0671H88.3319V16.8173H93.6767V15.3064H86.709V28.4901H93.6767Z" fill="#181818"/>
<path d="M103.611 28.4901L107.354 15.3064H105.638L103.283 23.7303L102.699 26.9601H102.498L101.895 23.7303L99.5584 15.3064H97.8057L101.548 28.4901H103.611Z" fill="#181818"/>
<path d="M116.902 28.4901V27.0734H115.129V16.7229H116.902V15.3064H111.482V16.7229H113.255V27.0734H111.482V28.4901H116.902Z" fill="#181818"/>
<path d="M128.259 28.4901V26.979H122.913V22.5781H127.817V21.0671H122.913V16.8173H128.259V15.3064H121.291V28.4901H128.259Z" fill="#181818"/>
<path d="M137.341 28.4901L139.187 20.1416L139.619 16.9496H139.845L140.279 20.1416L142.049 28.4901H144.14L147.097 15.3064H145.365L143.706 23.5981L143.254 26.6956H143.048L142.614 23.5981L140.862 15.3064H138.658L136.926 23.5981L136.474 26.6956H136.267L135.815 23.5981L134.157 15.3064H132.387L135.213 28.4901H137.341Z" fill="#181818"/>
<path d="M25.4837 6.90552H1.22559V36.8919H25.4837V6.90552Z" fill="white"/>
<path d="M23.3548 6C24.8514 6 26.0646 7.21523 26.0646 8.71428V35.0816H24.2581V8.71428C24.2581 8.21459 23.8537 7.80952 23.3548 7.80952H2.70968C2.21084 7.80952 1.80645 8.21459 1.80645 8.71428V35.0816C1.80645 35.5813 2.21084 35.9864 2.70968 35.9864H18.0645V37.7959H2.70968C1.21316 37.7959 0 36.5807 0 35.0816V8.71428C0 7.21523 1.21316 6 2.70968 6H23.3548Z" fill="#181818"/>
<path d="M22.0646 36.8914L16.9033 40.769V33.0139L22.0646 36.8914Z" fill="#E4002C"/>
<path d="M19.8054 13.4968H6.12793V15.5648H19.8054V13.4968Z" fill="#181818"/>
<path d="M19.8054 20.9932H6.12793V23.0612H19.8054V20.9932Z" fill="#181818"/>
<path d="M19.8054 28.4912H6.12793V30.5592H19.8054V28.4912Z" fill="#181818"/>
</svg>
