<svg width="164" height="48" viewBox="0 0 164 48" fill="none" xmlns="http://www.w3.org/2000/svg">
<path d="M157.566 19.5361C159.198 19.5361 160.51 20.0401 161.502 21.0481C162.51 22.0401 163.014 23.4321 163.014 25.2241V33.0241H159.654V25.6801C159.654 24.6401 159.39 23.8481 158.862 23.3041C158.334 22.7441 157.614 22.4641 156.702 22.4641C155.79 22.4641 155.062 22.7441 154.518 23.3041C153.99 23.8481 153.726 24.6401 153.726 25.6801V33.0241H150.366V25.6801C150.366 24.6401 150.102 23.8481 149.574 23.3041C149.046 22.7441 148.326 22.4641 147.414 22.4641C146.486 22.4641 145.75 22.7441 145.206 23.3041C144.678 23.8481 144.414 24.6401 144.414 25.6801V33.0241H141.054V19.7281H144.414V21.3361C144.846 20.7761 145.398 20.3361 146.07 20.0161C146.758 19.6961 147.51 19.5361 148.326 19.5361C149.366 19.5361 150.294 19.7601 151.11 20.2081C151.926 20.6401 152.558 21.2641 153.006 22.0801C153.438 21.3121 154.062 20.6961 154.878 20.2321C155.71 19.7681 156.606 19.5361 157.566 19.5361Z" fill="#212121"/>
<path d="M123.924 26.3277C123.924 24.9837 124.188 23.7917 124.716 22.7517C125.26 21.7117 125.988 20.9117 126.9 20.3517C127.828 19.7917 128.86 19.5117 129.996 19.5117C130.988 19.5117 131.852 19.7117 132.588 20.1117C133.34 20.5117 133.94 21.0157 134.388 21.6237V19.7277H137.772V33.0237H134.388V31.0797C133.956 31.7037 133.356 32.2237 132.588 32.6397C131.836 33.0397 130.964 33.2397 129.972 33.2397C128.852 33.2397 127.828 32.9517 126.9 32.3757C125.988 31.7997 125.26 30.9917 124.716 29.9517C124.188 28.8957 123.924 27.6877 123.924 26.3277ZM134.388 26.3757C134.388 25.5597 134.228 24.8637 133.908 24.2877C133.588 23.6957 133.156 23.2477 132.612 22.9437C132.068 22.6237 131.484 22.4637 130.86 22.4637C130.236 22.4637 129.66 22.6157 129.132 22.9197C128.604 23.2237 128.172 23.6717 127.836 24.2637C127.516 24.8397 127.356 25.5277 127.356 26.3277C127.356 27.1277 127.516 27.8317 127.836 28.4397C128.172 29.0317 128.604 29.4877 129.132 29.8077C129.676 30.1277 130.252 30.2877 130.86 30.2877C131.484 30.2877 132.068 30.1357 132.612 29.8317C133.156 29.5117 133.588 29.0637 133.908 28.4877C134.228 27.8957 134.388 27.1917 134.388 26.3757Z" fill="#212121"/>
<path d="M122.335 26.0877C122.335 26.5677 122.303 26.9997 122.239 27.3837H112.519C112.599 28.3437 112.935 29.0957 113.527 29.6397C114.119 30.1837 114.847 30.4557 115.711 30.4557C116.959 30.4557 117.847 29.9197 118.375 28.8477H121.999C121.615 30.1277 120.879 31.1837 119.791 32.0157C118.703 32.8317 117.367 33.2397 115.783 33.2397C114.503 33.2397 113.351 32.9597 112.327 32.3997C111.319 31.8237 110.527 31.0157 109.951 29.9757C109.391 28.9357 109.111 27.7357 109.111 26.3757C109.111 24.9997 109.391 23.7917 109.951 22.7517C110.511 21.7117 111.295 20.9117 112.303 20.3517C113.311 19.7917 114.471 19.5117 115.783 19.5117C117.047 19.5117 118.175 19.7837 119.167 20.3277C120.175 20.8717 120.951 21.6477 121.495 22.6557C122.055 23.6477 122.335 24.7917 122.335 26.0877ZM118.855 25.1277C118.839 24.2637 118.527 23.5757 117.919 23.0637C117.311 22.5357 116.567 22.2717 115.687 22.2717C114.855 22.2717 114.151 22.5277 113.575 23.0397C113.015 23.5357 112.671 24.2317 112.543 25.1277H118.855Z" fill="#212121"/>
<path d="M104.057 24.432C105.001 24.608 105.777 25.08 106.385 25.848C106.993 26.616 107.297 27.496 107.297 28.488C107.297 29.384 107.073 30.176 106.625 30.864C106.193 31.536 105.561 32.064 104.729 32.448C103.897 32.832 102.913 33.024 101.777 33.024H94.5532V16.272H101.465C102.601 16.272 103.577 16.456 104.393 16.824C105.225 17.192 105.849 17.704 106.265 18.36C106.697 19.016 106.913 19.76 106.913 20.592C106.913 21.568 106.649 22.384 106.121 23.04C105.609 23.696 104.921 24.16 104.057 24.432ZM97.9132 23.184H100.985C101.785 23.184 102.401 23.008 102.833 22.656C103.265 22.288 103.481 21.768 103.481 21.096C103.481 20.424 103.265 19.904 102.833 19.536C102.401 19.168 101.785 18.984 100.985 18.984H97.9132V23.184ZM101.297 30.288C102.113 30.288 102.745 30.096 103.193 29.712C103.657 29.328 103.889 28.784 103.889 28.08C103.889 27.36 103.649 26.8 103.169 26.4C102.689 25.984 102.041 25.776 101.225 25.776H97.9132V30.288H101.297Z" fill="#212121"/>
<path d="M91.8629 25.9438C91.8629 26.3598 91.8389 26.7998 91.7909 27.2638H81.2789C81.3589 28.5598 81.7989 29.5758 82.5989 30.3118C83.4149 31.0318 84.3989 31.3918 85.5509 31.3918C86.4949 31.3918 87.2789 31.1758 87.9029 30.7438C88.5429 30.2958 88.9909 29.7038 89.2469 28.9678H91.5989C91.2469 30.2318 90.5429 31.2638 89.4869 32.0638C88.4309 32.8478 87.1189 33.2398 85.5509 33.2398C84.3029 33.2398 83.1829 32.9598 82.1909 32.3998C81.2149 31.8398 80.4469 31.0478 79.8869 30.0238C79.3269 28.9838 79.0469 27.7838 79.0469 26.4238C79.0469 25.0638 79.3189 23.8718 79.8629 22.8478C80.4069 21.8238 81.1669 21.0398 82.1429 20.4958C83.1349 19.9358 84.2709 19.6558 85.5509 19.6558C86.7989 19.6558 87.9029 19.9278 88.8629 20.4718C89.8229 21.0158 90.5589 21.7678 91.0709 22.7278C91.5989 23.6718 91.8629 24.7438 91.8629 25.9438ZM89.6069 25.4878C89.6069 24.6558 89.4229 23.9438 89.0549 23.3518C88.6869 22.7438 88.1829 22.2878 87.5429 21.9838C86.9189 21.6638 86.2229 21.5038 85.4549 21.5038C84.3509 21.5038 83.4069 21.8558 82.6229 22.5598C81.8549 23.2638 81.4149 24.2398 81.3029 25.4878H89.6069Z" fill="#212121"/>
<path d="M64.4688 26.4238C64.4688 25.0638 64.7408 23.8798 65.2848 22.8718C65.8288 21.8478 66.5808 21.0558 67.5408 20.4958C68.5168 19.9358 69.6288 19.6558 70.8768 19.6558C72.4928 19.6558 73.8208 20.0478 74.8608 20.8318C75.9168 21.6158 76.6128 22.7038 76.9488 24.0958H74.5968C74.3728 23.2958 73.9328 22.6638 73.2768 22.1998C72.6368 21.7358 71.8368 21.5038 70.8768 21.5038C69.6288 21.5038 68.6208 21.9358 67.8528 22.7998C67.0848 23.6478 66.7008 24.8558 66.7008 26.4238C66.7008 28.0078 67.0848 29.2318 67.8528 30.0958C68.6208 30.9598 69.6288 31.3918 70.8768 31.3918C71.8368 31.3918 72.6368 31.1678 73.2768 30.7198C73.9168 30.2718 74.3568 29.6318 74.5968 28.7998H76.9488C76.5968 30.1438 75.8928 31.2238 74.8368 32.0398C73.7808 32.8398 72.4608 33.2398 70.8768 33.2398C69.6288 33.2398 68.5168 32.9598 67.5408 32.3998C66.5808 31.8398 65.8288 31.0478 65.2848 30.0238C64.7408 28.9998 64.4688 27.7998 64.4688 26.4238Z" fill="#212121"/>
<path d="M56.3411 19.6318C57.9411 19.6318 59.2371 20.1198 60.2291 21.0958C61.2211 22.0558 61.7171 23.4478 61.7171 25.2718V33.0238H59.5571V25.5838C59.5571 24.2718 59.2291 23.2718 58.5731 22.5838C57.9171 21.8798 57.0211 21.5278 55.8851 21.5278C54.7331 21.5278 53.8131 21.8878 53.1251 22.6078C52.4531 23.3278 52.1171 24.3758 52.1171 25.7518V33.0238H49.9331V19.8718H52.1171V21.7438C52.5491 21.0718 53.1331 20.5518 53.8691 20.1838C54.6211 19.8158 55.4451 19.6318 56.3411 19.6318Z" fill="#212121"/>
<path d="M47.0504 25.9438C47.0504 26.3598 47.0264 26.7998 46.9784 27.2638H36.4664C36.5464 28.5598 36.9864 29.5758 37.7864 30.3118C38.6024 31.0318 39.5864 31.3918 40.7384 31.3918C41.6824 31.3918 42.4664 31.1758 43.0904 30.7438C43.7304 30.2958 44.1784 29.7038 44.4344 28.9678H46.7864C46.4344 30.2318 45.7304 31.2638 44.6744 32.0638C43.6184 32.8478 42.3064 33.2398 40.7384 33.2398C39.4904 33.2398 38.3704 32.9598 37.3784 32.3998C36.4024 31.8398 35.6344 31.0478 35.0744 30.0238C34.5144 28.9838 34.2344 27.7838 34.2344 26.4238C34.2344 25.0638 34.5064 23.8718 35.0504 22.8478C35.5944 21.8238 36.3544 21.0398 37.3304 20.4958C38.3224 19.9358 39.4584 19.6558 40.7384 19.6558C41.9864 19.6558 43.0904 19.9278 44.0504 20.4718C45.0104 21.0158 45.7464 21.7678 46.2584 22.7278C46.7864 23.6718 47.0504 24.7438 47.0504 25.9438ZM44.7944 25.4878C44.7944 24.6558 44.6104 23.9438 44.2424 23.3518C43.8744 22.7438 43.3704 22.2878 42.7304 21.9838C42.1064 21.6638 41.4104 21.5038 40.6424 21.5038C39.5384 21.5038 38.5944 21.8558 37.8104 22.5598C37.0424 23.2638 36.6024 24.2398 36.4904 25.4878H44.7944Z" fill="#212121"/>
<path d="M30.2717 17.7358C29.8557 17.7358 29.5037 17.5918 29.2157 17.3038C28.9277 17.0158 28.7837 16.6638 28.7837 16.2478C28.7837 15.8318 28.9277 15.4798 29.2157 15.1918C29.5037 14.9038 29.8557 14.7598 30.2717 14.7598C30.6717 14.7598 31.0077 14.9038 31.2797 15.1918C31.5677 15.4798 31.7117 15.8318 31.7117 16.2478C31.7117 16.6638 31.5677 17.0158 31.2797 17.3038C31.0077 17.5918 30.6717 17.7358 30.2717 17.7358ZM31.3277 19.8718V33.0238H29.1437V19.8718H31.3277Z" fill="#212121"/>
<path d="M13.75 26.4238C13.75 25.0638 14.022 23.8798 14.566 22.8718C15.11 21.8478 15.862 21.0558 16.822 20.4958C17.798 19.9358 18.91 19.6558 20.158 19.6558C21.774 19.6558 23.102 20.0478 24.142 20.8318C25.198 21.6158 25.894 22.7038 26.23 24.0958H23.878C23.654 23.2958 23.214 22.6638 22.558 22.1998C21.918 21.7358 21.118 21.5038 20.158 21.5038C18.91 21.5038 17.902 21.9358 17.134 22.7998C16.366 23.6478 15.982 24.8558 15.982 26.4238C15.982 28.0078 16.366 29.2318 17.134 30.0958C17.902 30.9598 18.91 31.3918 20.158 31.3918C21.118 31.3918 21.918 31.1678 22.558 30.7198C23.198 30.2718 23.638 29.6318 23.878 28.7998H26.23C25.878 30.1438 25.174 31.2238 24.118 32.0398C23.062 32.8398 21.742 33.2398 20.158 33.2398C18.91 33.2398 17.798 32.9598 16.822 32.3998C15.862 31.8398 15.11 31.0478 14.566 30.0238C14.022 28.9998 13.75 27.7998 13.75 26.4238Z" fill="#212121"/>
<path d="M5.784 33.1921C4.68 33.1921 3.688 33.0001 2.808 32.6161C1.944 32.2161 1.264 31.6721 0.768 30.9841C0.272 30.2801 0.016 29.4721 0 28.5601H2.328C2.408 29.3441 2.728 30.0081 3.288 30.5521C3.864 31.0801 4.696 31.3441 5.784 31.3441C6.824 31.3441 7.64 31.0881 8.232 30.5761C8.84 30.0481 9.144 29.3761 9.144 28.5601C9.144 27.9201 8.968 27.4001 8.616 27.0001C8.264 26.6001 7.824 26.2961 7.296 26.0881C6.768 25.8801 6.056 25.6561 5.16 25.4161C4.056 25.1281 3.168 24.8401 2.496 24.5521C1.84 24.2641 1.272 23.8161 0.792 23.2081C0.328 22.5841 0.0960001 21.7521 0.0960001 20.7121C0.0960001 19.8001 0.328 18.9921 0.792 18.2881C1.256 17.5841 1.904 17.0401 2.736 16.6561C3.584 16.2721 4.552 16.0801 5.64 16.0801C7.208 16.0801 8.488 16.4721 9.48 17.2561C10.488 18.0401 11.056 19.0801 11.184 20.3761H8.784C8.704 19.7361 8.368 19.1761 7.776 18.6961C7.184 18.2001 6.4 17.9521 5.424 17.9521C4.512 17.9521 3.768 18.1921 3.192 18.6721C2.616 19.1361 2.328 19.7921 2.328 20.6401C2.328 21.2481 2.496 21.7441 2.832 22.1281C3.184 22.5121 3.608 22.8081 4.104 23.0161C4.616 23.2081 5.328 23.4321 6.24 23.6881C7.344 23.9921 8.232 24.2961 8.904 24.6001C9.576 24.8881 10.152 25.3441 10.632 25.9681C11.112 26.5761 11.352 27.4081 11.352 28.4641C11.352 29.2801 11.136 30.0481 10.704 30.7681C10.272 31.4881 9.632 32.0721 8.784 32.5201C7.936 32.9681 6.936 33.1921 5.784 33.1921Z" fill="#212121"/>
</svg>
