<svg width="134" height="48" viewBox="0 0 134 48" fill="none" xmlns="http://www.w3.org/2000/svg">
<g clip-path="url(#clip0_887_2668)">
<path d="M51.3026 32.0509C52.1575 32.0509 52.7696 31.9665 53.1284 31.7976C53.4873 31.6288 53.6667 31.3016 53.6667 30.8267C53.6667 30.4467 53.4345 30.1196 52.9807 29.8346C52.5163 29.5497 51.8197 29.233 50.8805 28.8742C50.1522 28.5998 49.4873 28.3148 48.8858 28.0299C48.2842 27.7344 47.7776 27.3861 47.366 26.9745C46.9439 26.5629 46.6272 26.0774 46.3951 25.5181C46.1629 24.9482 46.0468 24.2727 46.0468 23.4812C46.0468 21.9297 46.6272 20.7055 47.7776 19.8084C48.928 18.9113 50.5111 18.4575 52.5163 18.4575C53.5189 18.4575 54.4793 18.542 55.4081 18.7214C56.3263 18.9008 57.065 19.0908 57.6033 19.3018L56.7906 22.9429C56.2418 22.753 55.6508 22.5841 55.0176 22.4363C54.3843 22.2886 53.6667 22.2147 52.8646 22.2147C51.3976 22.2147 50.6694 22.6263 50.6694 23.439C50.6694 23.6289 50.701 23.7978 50.7644 23.9455C50.8277 24.0933 50.9543 24.2305 51.1443 24.3677C51.3343 24.5049 51.5876 24.6526 51.9147 24.811C52.2419 24.9693 52.6535 25.1381 53.1495 25.3281C54.1733 25.708 55.0176 26.088 55.693 26.4574C56.3579 26.8268 56.8962 27.2278 57.2761 27.65C57.6666 28.0827 57.9304 28.5576 58.0888 29.0747C58.2471 29.5919 58.3209 30.204 58.3209 30.89C58.3209 32.5153 57.7088 33.7501 56.4846 34.5839C55.2603 35.4176 53.5295 35.8398 51.2921 35.8398C49.8251 35.8398 48.6114 35.7131 47.6299 35.4598C46.6589 35.2065 45.9835 34.9955 45.6035 34.8266L46.3845 31.0272C47.176 31.3438 47.9992 31.5866 48.833 31.766C49.6668 31.9665 50.49 32.0509 51.3026 32.0509Z" fill="#34434A"/>
<path d="M61.0122 27.1539C61.0122 25.9613 61.2022 24.8321 61.5927 23.7767C61.9832 22.7213 62.5425 21.8031 63.2707 21.0116C63.999 20.22 64.896 19.6079 65.9409 19.1435C66.9857 18.6792 68.1783 18.4575 69.5186 18.4575C70.3946 18.4575 71.2073 18.5314 71.9355 18.6897C72.6637 18.848 73.3814 19.0696 74.0674 19.3652L73.0964 23.1012C72.6531 22.9324 72.1782 22.7846 71.6505 22.658C71.1228 22.5313 70.5424 22.468 69.888 22.468C68.5055 22.468 67.4712 22.9007 66.7957 23.7556C66.1203 24.6104 65.772 25.7397 65.772 27.1434C65.772 28.6315 66.0886 29.7818 66.7324 30.5945C67.3656 31.4071 68.4844 31.8187 70.078 31.8187C70.6479 31.8187 71.2495 31.766 71.9038 31.6604C72.5476 31.5549 73.1492 31.386 73.698 31.1538L74.3523 34.9849C73.8035 35.2171 73.1281 35.4176 72.3154 35.5865C71.5028 35.7553 70.5951 35.8398 69.6136 35.8398C68.1044 35.8398 66.8063 35.6181 65.7192 35.1643C64.6322 34.7105 63.7351 34.0984 63.0386 33.3279C62.342 32.5575 61.8249 31.6393 61.4977 30.5839C61.1705 29.5391 61.0122 28.3887 61.0122 27.1539Z" fill="#34434A"/>
<path d="M82.6053 14.1304C82.6053 14.9852 82.3309 15.6607 81.7715 16.1567C81.2122 16.6527 80.5578 16.8955 79.8085 16.8955C79.0592 16.8955 78.4048 16.6527 77.8455 16.1567C77.2861 15.6607 77.0117 14.9852 77.0117 14.1304C77.0117 13.2755 77.2861 12.6 77.8455 12.104C78.4048 11.608 79.0592 11.3652 79.8085 11.3652C80.5578 11.3652 81.2122 11.608 81.7715 12.104C82.3309 12.6 82.6053 13.2649 82.6053 14.1304ZM82.1726 35.4175H77.4972V18.9007H82.1726V35.4175Z" fill="#34434A"/>
<path d="M85.7822 27.2806C85.7822 25.8136 86.0039 24.5366 86.4577 23.439C86.9115 22.3413 87.5025 21.4232 88.2307 20.6949C88.9589 19.9667 89.8033 19.4074 90.7531 19.0274C91.703 18.6475 92.6845 18.4575 93.6871 18.4575C96.03 18.4575 97.8875 19.1752 99.249 20.6105C100.61 22.0458 101.286 24.1566 101.286 26.9323C101.286 27.2067 101.275 27.5022 101.254 27.8294C101.233 28.1565 101.212 28.4415 101.191 28.6948H90.5842C90.6898 29.6552 91.1436 30.4256 91.9351 30.985C92.7267 31.5549 93.7926 31.8293 95.133 31.8293C95.9878 31.8293 96.8321 31.7554 97.6553 31.5971C98.4785 31.4388 99.154 31.2488 99.6817 31.0166L100.315 34.816C100.062 34.9427 99.7239 35.0693 99.3123 35.196C98.8901 35.3226 98.4258 35.4282 97.9192 35.5232C97.402 35.6181 96.8532 35.692 96.2728 35.7553C95.6818 35.8187 95.1013 35.8503 94.5103 35.8503C93.0222 35.8503 91.7346 35.6287 90.637 35.196C89.5394 34.7527 88.6318 34.1511 87.9036 33.3913C87.1859 32.6314 86.6476 31.7238 86.2994 30.6789C85.9511 29.6235 85.7822 28.4943 85.7822 27.2806ZM96.7688 25.497C96.7477 25.0959 96.6844 24.716 96.5683 24.336C96.4522 23.9561 96.2728 23.6289 96.03 23.3334C95.7873 23.0379 95.4812 22.7952 95.1224 22.6157C94.753 22.4258 94.2992 22.3308 93.761 22.3308C93.2333 22.3308 92.79 22.4152 92.4101 22.5946C92.0301 22.7741 91.7241 23.0062 91.4708 23.3018C91.2175 23.5973 91.0275 23.935 90.8903 24.3255C90.7531 24.716 90.6581 25.1065 90.5948 25.5075H96.7688V25.497Z" fill="#34434A"/>
<path d="M104.747 14.7845L109.422 14.0352V18.9005H115.048V22.7949H109.422V28.5995C109.422 29.581 109.591 30.3726 109.94 30.953C110.288 31.544 110.984 31.829 112.029 31.829C112.536 31.829 113.053 31.7868 113.581 31.6918C114.119 31.5968 114.604 31.4702 115.037 31.3013L115.691 34.9424C115.122 35.1746 114.499 35.3751 113.813 35.544C113.127 35.7128 112.272 35.7973 111.269 35.7973C109.992 35.7973 108.937 35.6284 108.103 35.2801C107.269 34.9318 106.594 34.4569 106.098 33.8342C105.591 33.2221 105.243 32.4728 105.043 31.5863C104.842 30.7103 104.747 29.7288 104.747 28.6628V14.7845Z" fill="#34434A"/>
<path d="M133.844 18.9006C132.905 22.0774 131.913 25.0641 130.889 27.8503C129.865 30.6366 128.736 33.3383 127.523 35.9452C127.079 36.8845 126.647 37.6865 126.203 38.3514C125.76 39.0058 125.285 39.5546 124.757 39.9873C124.23 40.42 123.639 40.7261 122.984 40.9266C122.319 41.1271 121.549 41.2221 120.673 41.2221C119.934 41.2221 119.259 41.1588 118.647 41.0216C118.024 40.8844 117.517 40.7366 117.127 40.5678L117.94 36.8317C118.425 37.0005 118.847 37.1166 119.227 37.18C119.607 37.2433 119.998 37.2749 120.42 37.2749C121.254 37.2749 121.897 37.0533 122.351 36.5995C122.805 36.1457 123.185 35.523 123.502 34.7315C122.436 32.6418 121.37 30.2883 120.293 27.6815C119.227 25.0747 118.225 22.1512 117.275 18.9112H122.235C122.446 19.7238 122.689 20.6104 122.974 21.5602C123.259 22.5101 123.554 23.4705 123.871 24.452C124.188 25.4229 124.504 26.3728 124.831 27.291C125.158 28.2092 125.465 29.0535 125.76 29.8028C126.034 29.0535 126.319 28.2092 126.615 27.291C126.91 26.3728 127.195 25.4229 127.48 24.452C127.765 23.481 128.04 22.5206 128.304 21.5602C128.567 20.6104 128.8 19.7238 129.011 18.9112H133.844V18.9006Z" fill="#34434A"/>
<path d="M0.738771 17.8208C0.612125 17.8208 0.506586 17.8419 0.443263 17.8841C0.232185 18.0002 0 18.4224 0 19.2456V32.7545C0 33.5778 0.232185 33.9999 0.432709 34.116C0.633233 34.2321 1.11871 34.2215 1.83637 33.8099L13.3507 27.0977C14.0683 26.6861 14.3216 26.2639 14.3216 26.0001C14.3216 25.7362 14.0683 25.3246 13.3507 24.9025L1.83637 18.1902C1.36145 17.9158 0.992064 17.8208 0.738771 17.8208Z" fill="#B53818"/>
<path d="M36.411 17.8208C36.1577 17.8208 35.7777 17.9158 35.3134 18.1902L23.7991 24.9025C23.0814 25.3141 22.8281 25.7362 22.8281 26.0001C22.8281 26.2639 23.0814 26.6755 23.7991 27.0977L35.3134 33.8099C36.0205 34.2215 36.506 34.2321 36.717 34.116C36.9176 33.9999 37.1497 33.5778 37.1497 32.7545V19.2456C37.1497 18.4224 36.9176 18.0002 36.717 17.8841C36.6432 17.8419 36.5482 17.8208 36.411 17.8208Z" fill="#E8521E"/>
<path d="M3.53541 15.2773L15.0497 21.9895C15.7568 22.4011 16.2423 22.4117 16.4534 22.2956C16.6539 22.1795 16.8861 21.7573 16.8861 20.9341V7.42517C16.8861 6.60197 16.6539 6.17981 16.4534 6.06372C16.2528 5.94763 15.7674 5.95818 15.0497 6.36978L3.53541 13.0821C2.81775 13.4937 2.56445 13.9158 2.56445 14.1797C2.56445 14.4435 2.8283 14.8551 3.53541 15.2773Z" fill="#ED7231"/>
<path d="M3.53541 38.9179L15.0497 45.6302C15.7568 46.0418 16.2423 46.0523 16.4534 45.9362C16.6539 45.8201 16.8861 45.398 16.8861 44.5748V31.0658C16.8861 30.2426 16.6539 29.8204 16.4534 29.7043C16.2528 29.5883 15.7674 29.5988 15.0497 30.0104L3.53541 36.7227C2.81775 37.1343 2.56445 37.5564 2.56445 37.8203C2.56445 38.0841 2.8283 38.4957 3.53541 38.9179Z" fill="#E8521E"/>
<path d="M21.0026 29.6411C20.876 29.6411 20.7704 29.6622 20.7071 29.7044C20.5066 29.8205 20.2744 30.2427 20.2744 31.0659V44.5749C20.2744 45.3981 20.5066 45.8202 20.7071 45.9363C20.9076 46.0524 21.3931 46.0419 22.1108 45.6303L33.6251 38.918C34.3427 38.5064 34.596 38.0842 34.596 37.8204C34.596 37.5565 34.3427 37.1449 33.6251 36.7228L22.1002 30.0105C21.6253 29.7361 21.2559 29.6411 21.0026 29.6411Z" fill="#ED7231"/>
<path d="M21.002 6.00024C20.8753 6.00024 20.7698 6.02135 20.7064 6.06357C20.4954 6.17966 20.2632 6.60182 20.2632 7.42502V20.934C20.2632 21.7572 20.4954 22.1793 20.6959 22.2954C20.8964 22.4115 21.3819 22.401 22.0996 21.9894L33.6138 15.2771C34.3315 14.8655 34.5848 14.4434 34.5848 14.1795C34.5848 13.9157 34.3315 13.5041 33.6138 13.0819L22.0996 6.36963C21.6246 6.09523 21.2552 6.00024 21.002 6.00024Z" fill="#F39C71"/>
</g>
<defs>
<clipPath id="clip0_887_2668">
<rect width="133.844" height="48" fill="white"/>
</clipPath>
</defs>
</svg>
