<svg width="189" height="48" viewBox="0 0 189 48" fill="none" xmlns="http://www.w3.org/2000/svg">
<g clip-path="url(#clip0_887_2715)">
<path d="M0 4V43H39.0194V4H0ZM19.5097 33.9C13.7218 33.9 9.03951 29.22 9.03951 23.435C9.03951 17.65 13.7218 12.97 19.5097 12.97C25.2975 12.97 29.9799 17.65 29.9799 23.435C29.9799 29.22 25.2975 33.9 19.5097 33.9Z" fill="#66FF66"/>
<path d="M28.354 33.9649C34.1365 33.9649 38.8242 29.2796 38.8242 23.4999C38.8242 17.7202 34.1365 13.0349 28.354 13.0349C22.5715 13.0349 17.8838 17.7202 17.8838 23.4999C17.8838 29.2796 22.5715 33.9649 28.354 33.9649Z" fill="#2568EF"/>
<path d="M28.3539 13.0349C26.7281 13.0349 25.1673 13.4249 23.8667 14.0749C27.3784 15.7649 29.7847 19.3399 29.7847 23.4999C29.7847 27.6599 27.3784 31.2349 23.8667 32.9249C25.2324 33.5749 26.7932 33.9649 28.3539 33.9649C34.1418 33.9649 38.8241 29.2849 38.8241 23.4999C38.8241 17.7149 34.0768 13.0349 28.3539 13.0349Z" fill="#0F6860"/>
</g>
<path d="M63.8619 28.1556C63.8619 31.6006 60.3502 33.8756 56.5132 33.8756C52.6764 33.8756 50.01 31.9256 48.7744 29.8456L52.026 27.7656C53.0015 29.4556 54.6273 30.3656 56.5132 30.4306C58.1391 30.4956 59.3747 29.9106 59.7649 28.8056C60.09 27.7656 59.5698 26.7256 58.3342 26.2056C57.2286 25.7506 54.2371 24.3206 53.5868 24.0606C51.3107 22.9556 49.7499 21.5906 49.7499 18.9256C49.6849 15.4806 52.8064 13.1406 56.6433 13.1406C59.8949 13.1406 62.2361 14.6356 63.6018 16.7806L60.3502 18.6006C59.6998 17.4956 58.3992 16.3906 56.7083 16.3906C54.7574 16.3906 53.7169 17.3006 53.4567 18.3406C53.2616 19.5106 54.1071 20.3556 55.4077 20.8756C56.2531 21.2656 59.1145 22.6306 60.1551 23.0856C62.171 24.0606 63.8619 25.5556 63.8619 28.1556Z" fill="#2568EF"/>
<path d="M76.543 32.5757C75.5026 33.2258 74.0718 33.6808 72.7712 33.6808C69.9748 33.6808 68.4791 31.6007 68.4791 29.0008V22.0457H65.2925V19.2508H68.5441V14.8958H72.1859V19.2508H76.413V22.0457H72.2509V28.8058C72.2509 30.0407 72.8362 30.4958 73.9418 30.4958C74.462 30.5608 75.1124 30.3008 75.4375 30.1058L76.543 32.5757Z" fill="#2568EF"/>
<path d="M90.0047 27.6356H81.1603C81.6806 29.2606 83.2414 30.4306 84.8021 30.4306C86.2979 30.4306 87.4685 29.7806 88.0538 29.1306C88.1838 28.9356 88.3789 28.7406 88.3789 28.7406L90.9802 30.9506C89.8746 32.3156 87.6636 33.6806 84.8672 33.6806C80.8352 33.6806 77.5186 30.3656 77.5186 26.2706C77.5186 22.1756 80.9002 18.8606 84.8672 18.8606C87.1433 18.8606 89.4844 19.9656 90.7851 21.8506C91.6956 23.0856 92.0858 24.3856 92.0858 25.8806C92.0207 26.7906 91.3704 27.6356 90.0047 27.6356ZM81.0953 25.0356H88.3139C87.9887 23.8006 86.8832 22.3056 84.8021 22.3056C83.0463 22.2406 81.6156 23.4756 81.0953 25.0356Z" fill="#2568EF"/>
<path d="M108.279 25.4908V33.3558H104.702V25.5558C104.702 23.7358 103.207 22.3058 101.386 22.3058C99.5647 22.3058 98.069 23.6708 98.069 25.7508V33.2908H94.4922V19.2508H97.8088V20.8758C98.9144 19.5108 100.54 18.9258 102.166 18.9258C105.873 18.9258 108.279 21.7858 108.279 25.4908Z" fill="#2568EF"/>
<path d="M124.862 30.9506C123.496 32.7056 121.221 33.8106 118.814 33.8106C114.652 33.8106 111.14 30.4306 111.14 26.3356C111.14 22.2406 114.652 18.8606 118.814 18.8606C121.221 18.8606 123.431 19.9656 124.797 21.6556L121.87 23.6706C121.155 22.8256 119.985 22.3706 118.814 22.3706C116.603 22.3706 114.847 24.1256 114.847 26.4006C114.847 28.6106 116.603 30.4306 118.814 30.4306C120.05 30.4306 121.285 29.9106 122.001 29.0006L124.862 30.9506Z" fill="#2568EF"/>
<path d="M126.748 15.5456C126.748 14.3756 127.789 13.4006 129.089 13.4006C130.325 13.4006 131.366 14.3756 131.366 15.5456C131.366 16.7156 130.325 17.6906 129.089 17.6906C127.789 17.6906 126.748 16.7156 126.748 15.5456ZM127.203 19.2507H130.78V33.3556H127.203V19.2507Z" fill="#2568EF"/>
<path d="M139.885 30.4956L140.86 32.9007C139.885 33.4857 138.779 33.7456 138.129 33.7456C135.853 33.7456 134.552 32.1207 134.552 29.7807V13.4006H138.194V29.5206C138.194 29.9106 138.389 30.1707 138.584 30.3657C138.844 30.4956 139.169 30.6256 139.885 30.4956Z" fill="#2568EF"/>
<path d="M156.468 19.2506V33.3556H153.151V31.8606C152.111 33.0306 150.485 33.8106 148.729 33.8106C144.567 33.8106 141.38 30.4306 141.38 26.3356C141.38 22.1756 144.567 18.8606 148.729 18.8606C150.485 18.8606 152.176 19.6406 153.151 20.7456V19.2506H156.468ZM152.826 27.8956V24.7106C152.176 23.2806 150.745 22.2406 149.12 22.2406C148.274 22.2406 147.428 22.5006 146.778 22.9556C145.738 23.6706 145.023 24.9056 145.023 26.2706C145.023 27.6356 145.738 28.8706 146.778 29.5856C147.428 30.0406 148.209 30.3006 149.12 30.3006C150.745 30.3656 152.176 29.3256 152.826 27.8956Z" fill="#2568EF"/>
<defs>
<clipPath id="clip0_887_2715">
<rect width="39.0194" height="39" fill="white" transform="translate(0 4)"/>
</clipPath>
</defs>
</svg>
