<svg width="52" height="52" viewBox="0 0 52 52" fill="none" xmlns="http://www.w3.org/2000/svg">
<path d="M34.9268 16.8948C34.9269 18.0198 35.3208 18.9763 36.1084 19.7639C36.8961 20.5515 37.8525 20.9455 38.9775 20.9456H44.2832L41.415 38.1887C41.415 38.7622 41.2006 39.2644 40.7705 39.6946C40.3404 40.1247 39.8381 40.34 39.2646 40.3401H23.4912C22.9177 40.3401 22.4155 40.1246 21.9854 39.6946C21.5552 39.2644 21.3398 38.7623 21.3398 38.1887L24.208 13.8118C24.208 13.2382 24.4233 12.7361 24.8535 12.3059C25.2836 11.8759 25.785 11.6605 26.3584 11.6604H34.9268V16.8948ZM25.6416 31.7356H38.2168L38.5479 29.5852H25.9727L25.6416 31.7356ZM26.3584 26.717H38.9336L39.2646 24.5657H26.6895L26.3584 26.717ZM44.2832 18.7942H38.9775C38.4392 18.7942 37.988 18.6124 37.624 18.2483C37.2599 17.8844 37.0772 17.433 37.0771 16.8948V11.6604L44.2832 18.7942Z" fill="#8B3E79"/>
<path d="M20.4014 33.8865H9.86816L10.2002 31.7361H20.6543L20.4014 33.8865ZM21.2451 26.7166H7.7168L8.09961 24.5662H21.498L21.2451 26.7166ZM22.0889 19.5476H11.3018L11.7002 17.3962H22.3418L22.0889 19.5476Z" fill="#8B3E79"/>
</svg>
