<svg width="52" height="52" viewBox="0 0 52 52" fill="none" xmlns="http://www.w3.org/2000/svg">
<path d="M22.0021 31.4229L23.7437 29.6812L20.0625 26L23.7042 22.3583L21.9625 20.6167L16.5792 26L22.0021 31.4229ZM29.9979 31.4229L35.4208 26L29.9979 20.5771L28.2563 22.3187L31.9375 26L28.2563 29.6812L29.9979 31.4229ZM14.125 40.25C13.4917 40.25 12.9375 40.0125 12.4625 39.5375C11.9875 39.0625 11.75 38.5083 11.75 37.875V14.125C11.75 13.4917 11.9875 12.9375 12.4625 12.4625C12.9375 11.9875 13.4917 11.75 14.125 11.75H37.875C38.5083 11.75 39.0625 11.9875 39.5375 12.4625C40.0125 12.9375 40.25 13.4917 40.25 14.125V37.875C40.25 38.5083 40.0125 39.0625 39.5375 39.5375C39.0625 40.0125 38.5083 40.25 37.875 40.25H14.125Z" fill="#8B3E79"/>
</svg>
