<svg width="52" height="52" viewBox="0 0 52 52" fill="none" xmlns="http://www.w3.org/2000/svg">
<path d="M26 11.75C34.8366 11.75 42 17.1226 42 23.75C42 30.3774 34.8366 35.75 26 35.75C24.3006 35.75 22.6635 35.5497 21.127 35.1816L14.5 40.25L16.2461 33.2617C12.4479 31.0677 10 27.6237 10 23.75C10 17.1226 17.1634 11.75 26 11.75ZM20 21.75C18.8954 21.75 18 22.6454 18 23.75C18 24.8546 18.8954 25.75 20 25.75C21.1046 25.75 22 24.8546 22 23.75C22 22.6454 21.1046 21.75 20 21.75ZM26 21.75C24.8954 21.75 24 22.6454 24 23.75C24 24.8546 24.8954 25.75 26 25.75C27.1046 25.75 28 24.8546 28 23.75C28 22.6454 27.1046 21.75 26 21.75ZM32 21.75C30.8954 21.75 30 22.6454 30 23.75C30 24.8546 30.8954 25.75 32 25.75C33.1046 25.75 34 24.8546 34 23.75C34 22.6454 33.1046 21.75 32 21.75Z" fill="#8B3E79"/>
</svg>
